<?xml version="1.0" encoding="utf-8"?>
<!-- Generator: Adobe Illustrator 27.0.0, SVG Export Plug-In . SVG Version: 6.00 Build 0)  -->
<svg version="1.1" id="Capa_1" xmlns="http://www.w3.org/2000/svg" xmlns:xlink="http://www.w3.org/1999/xlink" x="0px" y="0px"
	 viewBox="0 0 600 600" style="enable-background:new 0 0 600 600;" xml:space="preserve">
<style type="text/css">
	.st0{fill:#4E7B9B;}
	.st1{fill:#FEFEFE;}
	.st2{fill:#FFFEFE;}
	.st3{fill:#1F2C51;}
	.st4{fill:#161730;}
	.st5{fill:#1A1D3A;}
	.st6{fill:#1B4473;}
	.st7{fill:#23507A;}
	.st8{fill:#143C67;}
	.st9{fill:#5D87A2;}
	.st10{fill:#153E6D;}
	.st11{fill:#164572;}
	.st12{fill:#345C82;}
	.st13{fill:#5B89A2;}
	.st14{fill:#1D2D51;}
	.st15{fill:#214576;}
	.st16{fill:#1C4776;}
	.st17{fill:#1A4271;}
	.st18{fill:#285A83;}
	.st19{fill:#1C4473;}
	.st20{fill:#1F4974;}
	.st21{fill:#2D5581;}
	.st22{fill:#618BA8;}
	.st23{fill:#618EA6;}
	.st24{fill:#1D355F;}
	.st25{fill:#254D7A;}
	.st26{fill:#1C4C78;}
	.st27{fill:#1F2D53;}
	.st28{fill:#1A4A78;}
	.st29{fill:#2D5B81;}
	.st30{fill:#1D2546;}
	.st31{fill:#254A77;}
	.st32{fill:#1D365F;}
	.st33{fill:#1D4472;}
	.st34{fill:#1E335D;}
	.st35{fill:#194172;}
	.st36{fill:#194270;}
	.st37{fill:#32567F;}
	.st38{fill:#244F7B;}
	.st39{fill:#30557E;}
	.st40{fill:#1D4977;}
	.st41{fill:#1F335C;}
	.st42{fill:#2C4E79;}
	.st43{fill:#1D3763;}
	.st44{fill:#184676;}
	.st45{fill:#1E3662;}
	.st46{fill:#1C4B77;}
	.st47{fill:#26507B;}
	.st48{fill:#224976;}
	.st49{fill:#1D4473;}
	.st50{fill:#19406F;}
	.st51{fill:#214976;}
	.st52{fill:#274E7A;}
	.st53{fill:#1F335D;}
	.st54{fill:#224C79;}
	.st55{fill:#1E3259;}
	.st56{fill:#20527B;}
	.st57{fill:#264C78;}
	.st58{fill:#1E4473;}
	.st59{fill:#274D78;}
	.st60{fill:#2B507D;}
	.st61{fill:#2E4F7C;}
	.st62{fill:#254E7A;}
	.st63{fill:#1E3056;}
	.st64{fill:#1E2F55;}
	.st65{fill:#1D4876;}
	.st66{fill:#1C4375;}
	.st67{fill:#305E86;}
	.st68{fill:#174173;}
	.st69{fill:#1C4675;}
	.st70{fill:#1B4272;}
	.st71{fill:#224775;}
	.st72{fill:#2B4D7B;}
	.st73{fill:#183A65;}
	.st74{fill:#23507D;}
	.st75{fill:#1F2D52;}
	.st76{fill:#274F7A;}
	.st77{fill:#153D6C;}
	.st78{fill:#1F4675;}
	.st79{fill:#27547F;}
	.st80{fill:#1D3258;}
	.st81{fill:#1E355E;}
	.st82{fill:#29373F;}
	.st83{fill:#5D86A4;}
	.st84{fill:#618BA5;}
	.st85{fill:#6090AE;}
	.st86{fill:#5691BC;}
	.st87{fill:#61A5D8;}
	.st88{fill:#303637;}
	.st89{fill:#4C7693;}
	.st90{fill:#5D98C2;}
	.st91{fill:#4D7491;}
	.st92{fill:#61A0CF;}
	.st93{fill:#5686A4;}
	.st94{fill:#5282A1;}
	.st95{fill:#558AAF;}
	.st96{fill:#60A2D2;}
	.st97{fill:#62A1D2;}
	.st98{fill:#5A91BB;}
	.st99{fill:#5E9CCB;}
	.st100{fill:#1A1815;}
	.st101{fill:#1C1916;}
	.st102{fill:#1B1716;}
	.st103{fill:#4C748F;}
	.st104{fill:#154572;}
	.st105{fill:#1D1917;}
	.st106{fill:#201D1B;}
	.st107{fill:#1A1612;}
	.st108{fill:#588DB6;}
	.st109{fill:#5A94BE;}
	.st110{fill:#5995BF;}
	.st111{fill:#60A0D0;}
	.st112{fill:#191412;}
	.st113{fill:#5E9AC5;}
	.st114{fill:#26517C;}
	.st115{fill:#5891BC;}
	.st116{fill:#2B5D83;}
	.st117{fill:#1B3763;}
	.st118{fill:#5E98C3;}
	.st119{fill:#618CA6;}
	.st120{fill:#181313;}
	.st121{fill:#628DA6;}
	.st122{fill:#22211F;}
	.st123{fill:#5D96C1;}
	.st124{fill:#5E9CCC;}
	.st125{fill:#578FB8;}
	.st126{fill:#648EA5;}
	.st127{fill:#61A1CF;}
	.st128{fill:#202021;}
	.st129{fill:#5892BC;}
	.st130{fill:#5B97C3;}
	.st131{fill:#5A93BD;}
	.st132{fill:#628CA4;}
	.st133{fill:#2D5880;}
	.st134{fill:#628DA7;}
	.st135{fill:#598FB8;}
	.st136{fill:#5C98C1;}
	.st137{fill:#60A3D2;}
	.st138{fill:#5A92BA;}
	.st139{fill:#5E89A3;}
	.st140{fill:#698FA7;}
	.st141{fill:#5991B7;}
	.st142{fill:#161310;}
	.st143{fill:#181513;}
	.st144{fill:#1E335C;}
	.st145{fill:#171110;}
	.st146{fill:#2C5C86;}
	.st147{fill:#191211;}
	.st148{fill:#1E325A;}
	.st149{fill:#1F2F56;}
	.st150{fill:#211F22;}
	.st151{fill:#1E1D1E;}
	.st152{fill:#1A1B1B;}
	.st153{fill:#191717;}
	.st154{fill:#608DA6;}
	.st155{fill:#1B1715;}
	.st156{fill:#5B95BE;}
	.st157{fill:#1D1D1E;}
	.st158{fill:#5B94BE;}
	.st159{fill:#191312;}
	.st160{fill:#5D87A5;}
	.st161{fill:#5890B8;}
	.st162{fill:#5B93BA;}
	.st163{fill:#1B1A1B;}
	.st164{fill:#18110F;}
	.st165{fill:#5995C0;}
	.st166{fill:#5C99C2;}
	.st167{fill:#5D99C5;}
	.st168{fill:#5992BD;}
	.st169{fill:#171210;}
	.st170{fill:#628EA8;}
	.st171{fill:#171615;}
	.st172{fill:#638FA7;}
	.st173{fill:#1B191A;}
	.st174{fill:#17100E;}
	.st175{fill:#609CC9;}
	.st176{fill:#62A0D4;}
	.st177{fill:#608BA4;}
	.st178{fill:#150B06;}
	.st179{fill:#65A7DA;}
	.st180{fill:#1C1A1A;}
	.st181{fill:#609BC7;}
	.st182{fill:#1C1A1D;}
	.st183{fill:#1E1918;}
	.st184{fill:#608AA9;}
	.st185{fill:#5F99C4;}
	.st186{fill:#5C96C0;}
	.st187{fill:#618AA4;}
	.st188{fill:#5C9AC5;}
	.st189{fill:#5890BA;}
	.st190{fill:#1F3159;}
	.st191{fill:#648EAB;}
	.st192{fill:#5995BB;}
	.st193{fill:#1A1E3B;}
	.st194{fill:#FCFCFC;}
	.st195{fill:#32668B;}
	.st196{fill:#11406E;}
	.st197{fill:#070D12;}
	.st198{fill:#0C0F12;}
	.st199{fill:#020203;}
	.st200{fill:#3A4754;}
	.st201{fill:#3A4952;}
	.st202{fill:#18110B;}
	.st203{fill:#140E08;}
	.st204{fill:#2E404C;}
	.st205{fill:#2D3F48;}
	.st206{fill:#34454E;}
	.st207{fill:#404F58;}
	.st208{fill:#26333B;}
	.st209{fill:#45545F;}
	.st210{fill:#425562;}
	.st211{fill:#0B0706;}
	.st212{fill:#44535E;}
	.st213{fill:#27343B;}
	.st214{fill:#040507;}
	.st215{fill:#030505;}
	.st216{fill:#1D1C19;}
	.st217{fill:#040506;}
	.st218{fill:#050809;}
	.st219{fill:#030405;}
	.st220{fill:#25323A;}
	.st221{fill:#425361;}
	.st222{fill:#405462;}
	.st223{fill:#41525E;}
	.st224{fill:#374851;}
	.st225{fill:#080F14;}
	.st226{fill:#0D0806;}
	.st227{fill:#3A4953;}
	.st228{fill:#41515C;}
	.st229{fill:#121416;}
	.st230{fill:#455460;}
	.st231{fill:#0E0806;}
	.st232{fill:#060405;}
	.st233{fill:#130B07;}
	.st234{fill:#304553;}
	.st235{fill:#0B0D0E;}
	.st236{fill:#1B1D1F;}
	.st237{fill:#1E1D1B;}
	.st238{fill:#060708;}
	.st239{fill:#1E1C18;}
	.st240{fill:#1A1C1F;}
	.st241{fill:#040607;}
	.st242{fill:#101112;}
	.st243{fill:#1A1615;}
	.st244{fill:#050607;}
	.st245{fill:#1D1C1B;}
	.st246{fill:#181B1C;}
	.st247{fill:#0E1012;}
	.st248{fill:#0A0C0D;}
	.st249{fill:#465561;}
	.st250{fill:#212223;}
	.st251{fill:#19100A;}
	.st252{fill:#48565F;}
	.st253{fill:#111313;}
	.st254{fill:#1E1E20;}
	.st255{fill:#101216;}
	.st256{fill:#1D1C1C;}
	.st257{fill:#141516;}
	.st258{fill:#111114;}
	.st259{fill:#0A0C0C;}
	.st260{fill:#1D1614;}
	.st261{fill:#150E08;}
	.st262{fill:#3A464F;}
	.st263{fill:#080909;}
	.st264{fill:#131213;}
	.st265{fill:#121516;}
	.st266{fill:#3A4653;}
	.st267{fill:#16191D;}
	.st268{fill:#1A1A1E;}
	.st269{fill:#0E0F11;}
	.st270{fill:#1C1A16;}
	.st271{fill:#42647D;}
	.st272{fill:#020304;}
	.st273{fill:#0B0C0E;}
	.st274{fill:#050708;}
	.st275{fill:#030406;}
	.st276{fill:#0D0F11;}
	.st277{fill:#07090A;}
	.st278{fill:#0E0F12;}
	.st279{fill:#15191B;}
	.st280{fill:#111214;}
	.st281{fill:#101315;}
	.st282{fill:#17191C;}
	.st283{fill:#171719;}
	.st284{fill:#0C0F10;}
	.st285{fill:#111317;}
	.st286{fill:#131317;}
	.st287{fill:#08090B;}
	.st288{fill:#34414B;}
	.st289{fill:#1C1D1E;}
	.st290{fill:#080B0D;}
	.st291{fill:#16191B;}
	.st292{fill:#15181B;}
	.st293{fill:#212326;}
	.st294{fill:#0D0F12;}
	.st295{fill:#39454E;}
	.st296{fill:#101317;}
	.st297{fill:#060809;}
	.st298{fill:#3B4651;}
	.st299{fill:#36434D;}
	.st300{fill:#080A0B;}
	.st301{fill:#181A1C;}
	.st302{fill:#070809;}
	.st303{fill:#040708;}
	.st304{fill:#0C0D0E;}
	.st305{fill:#0D0E10;}
	.st306{fill:#A0A4A6;}
	.st307{fill:#F4F3F4;}
	.st308{fill:#F5F4F5;}
	.st309{fill:#3B4B55;}
	.st310{fill:#3F4F5C;}
	.st311{fill:#323E48;}
	.st312{fill:#3D4A55;}
	.st313{fill:#3B4753;}
	.st314{fill:#FCFCFD;}
	.st315{fill:#29373F;stroke:#29373F;stroke-width:9;stroke-miterlimit:10;}
	.st316{fill:#4E7B9B;stroke:#FFFFFF;stroke-width:5;stroke-miterlimit:10;}
</style>
<g>
	<g>
		<path class="st0" d="M538.8,523.3c-0.2,1.4-1.8,1.6-2.4,2.7c-1.3,0.9-2.4,2-3.3,3.3c-1.9,0.7-2.1,3.2-4.1,3.8
			c-1.3,0.5-2.1,1.5-2.9,2.5c-0.1,0.2-0.3,0.3-0.6,0.3c-1,0.3-1.7,1.1-2.3,1.9c-0.8,0.5-1.7,1.1-2.5,1.6c-1.1,0.2-1.8,1-2.4,1.8
			c-0.6,0.6-1.2,1.2-2.1,1c-1.1,0.9-2.8,1.1-3.6,2.5c-2.8,1.3-5.7,2.6-8.5,3.8c-1.2,0.6-2.7,0.7-3.6,2c-1.4,0.5-2.9,1-4.3,1.6
			c-2.1-0.6-3.9,0.2-5.6,1.4c-0.5,0.5-1,0.5-1.6,0.1c-1.6,1.7-4,1.5-5.8,2.7c-0.3,0.5-0.8,0.4-1.3,0.4c-1.8-0.3-3.5,0.4-5.1,1
			c-0.5,0.1-1,0.2-1.5,0.3c-1.9,0.1-3.8-0.1-5.7,0.4c-0.3,0-0.7,0-1,0c-1.8-0.3-3.6-0.8-5.4,0.3c-0.3,0.2-0.7,0.3-1.1,0.4
			c-0.6,0.1-1.3,0-1.9-0.2c-1.8-0.2-3.6-0.1-5.3-0.1c-103.2,0-206.3,0-309.5,0c-1.9,0-3.8-0.1-5.7,0.2c-1,0.3-2,0.3-3-0.1
			c-1.3-0.9-2.7-1-4.2-0.5c-0.6,0.1-1.3,0.2-1.9-0.1c-0.3-0.1-0.5-0.3-0.6-0.6c-0.9-1-1.9-0.1-2.8-0.1c-0.8,0.1-1.6-0.1-2.4-0.3
			c-0.9-0.5-1.9-0.5-2.9-0.6c-0.8-0.6-1.8-0.7-2.8-0.7c-1.7-0.6-3.4-0.9-5.1-1.1c-0.9,0.3-1.5-0.3-2.1-0.7c-0.6-1.7-1.9-1.3-3.2-1.1
			c-1-0.6-2.2-0.4-3.2-0.9c-0.5-0.1-1-0.2-1.5-0.2c-0.8-0.8-1.5-1.5-2.7-1.2c-0.3-0.1-0.5-0.1-0.8-0.2c-0.8-0.8-1.5-1.5-2.8-1.2
			c-4.6-1.7-8.8-4.1-12.9-6.7c-0.4-1.3-2.2-1.1-2.5-2.4c-1.8,0.4-2.6-1.3-3.9-2c-0.9-0.9-1.8-1.8-3-2.3c-0.6,0-1.1-0.3-1.3-0.9
			c-0.5-0.9-1.2-1.6-2.2-2c-3.5-3.5-7-7-10.6-10.5c-0.4-1-1.1-1.7-1.9-2.2c-5.6-7-10.3-14.5-13.6-22.8c0.5-1.3-1.3-2.2-0.8-3.5
			c-1.6-1.8-2.4-4-2.9-6.3c0.1-1.5-0.4-2.9-1.1-4.2c-0.3-1.4-0.6-2.9-0.9-4.3c-0.7-1.4-0.2-3-1-4.3c0.1-1.7-0.6-3.2-0.8-4.9
			c0.1-1.5-0.3-2.9-0.6-4.3c-0.2-0.7-0.1-1.4,0-2.1c0.6-2.5-0.1-4.9,0.1-7.4c-0.5,0-0.8-0.2-1.1-0.5c0-0.7,0-1.5,0-2.2
			c0.4-0.9,0.2-2,0.6-2.9c0.1-31.1,0.2-62.2-0.1-93.3c-0.2-0.4-0.2-0.8,0-1.3c0.5-11.9,0.1-23.9,0.1-35.8c0-8.5,0.3-17-0.1-25.5
			c-0.1-0.4-0.1-0.9,0-1.3c0.3-12.3,0.1-24.6,0.1-36.9c0.1-17.7-0.1-35.4,0.2-53.2c0.5-8-0.3-16-0.1-24c0.3-10.1,0-20.2-0.1-30.4
			c0-2.2,0.6-4.5,0.4-6.7c-0.3-2.5,0.6-5,0.1-7.5c-0.2-1.4,0.1-2.6,0.9-3.8c-0.2-1.6-1.5-3.3,0-4.9c0.8-0.6,0.1-1.6,0.6-2.2
			c0.8-1,0.3-2.3,0.6-3.4c1-1,0.1-2.9,1.6-3.7c-0.1-0.2-0.1-0.3,0-0.5c-0.2-1.5,0.4-2.9,0.9-4.3c0-0.3,0.1-0.6,0.1-0.9
			c0.6-1.1,1.4-2,1.3-3.3c-0.6-1.3,0.3-1.7,1.2-2.2c-0.4-1.4,0.6-2.1,1.4-3c0-0.2-0.1-0.4-0.1-0.6c0.2-0.9,0.3-2,1.2-2.6
			c-0.6-3,1.9-4.7,3-6.8c2.3-4.2,5.4-8.1,8.2-12.1c0.9-0.6,1.6-1.2,1.9-2.3c1-0.9,2-1.8,3-2.7c1.7-2.4,3.8-4.5,6.2-6.3
			c0.3-1.1,0.9-2,2.1-2.3c1.1-0.5,1.9-1.5,3-2c0.2-0.3,0.3-0.5,0.5-0.8c1-0.3,1.7-1,2.3-1.8c4.9-2.8,9.1-6.6,14.4-8.8
			c1.3-0.5,2.4-1.2,3.8-1.4c1.1-0.4,2.1-1.1,3.2-1.4c3.7-2.1,7.7-3.3,11.8-4.2c0.7-0.1,1.4-0.2,1.9-0.8c0.4-0.3,0.9-0.3,1.4-0.1
			c1.8,0.3,3.4-0.5,5-1c0.4-0.2,0.8-0.4,1.3-0.4c0.6-0.2,1.5,1.2,1.9-0.3c0.3-0.4,0.7-0.5,1.2-0.5c1.1-0.1,2.3,0.2,3.2-0.6
			c0.6-0.2,1.3-0.1,1.9-0.1c1.4,0.5,2.8,0.5,4-0.4c0.4-0.3,0.9-0.5,1.4-0.6c0.5-0.1,1,0,1.5,0.1c2.5,0.6,5,0.2,7.5,0.4
			c0,0,0.1-0.1,0.1-0.2c-0.1-0.1-0.1-0.2-0.2-0.3c0.2-0.4,0.4-0.6,0.8-0.7c1.2-0.4,2.5-0.3,3.7,0.1c1.8,0.3,3.5,0.2,5.3,0.2
			c98.3,0,196.5,0,294.8,0c1.8,0,3.6,0.1,5.3-0.2c1.4-0.4,2.9-0.3,4.4-0.2c0.4,0.1,0.7,0.2,1,0.4c2,1.3,4.2,0.7,6.4,0.5
			c0.5-0.1,1-0.1,1.5,0c0.3,0.1,0.6,0.3,0.9,0.4c1.1,0.8,2.4,0.5,3.6,0.3c0.6-0.1,1.2,0,1.6,0.6c1.1,0.9,2.3,0.7,3.4,0
			c0.4-0.1,0.6,0.2,0.7,0.5c1.2,1.2,2.6,1.4,4.2,0.9c0.7,0.2,1.4,0.4,2.1,0.6c1.2-0.9,2.1,0.6,3.3,0.4c1.4,0.8,3,0.9,4.5,1.1
			c2.4,0.8,4.8,1.5,7.2,2.3c0.7,0.8,1.5,1.5,2.7,1.2c0.4-0.1,0.7,0.2,0.8,0.6c1.6,0.9,3.3,1.5,5,2.2c4.4,2.4,9.2,4.2,13.1,7.6
			c0.8,0.7,1.7,1.4,2.5,2.2c0.9,0.6,2,0.9,2.8,1.5c0.5,0.3,1,0.6,1.5,0.9c0.6,0.9,1.4,1.8,2.1,2.7c3.8,2.1,6.4,5.4,9.2,8.5
			c0.7,1.1,1.5,2,2.6,2.8c0.4,0.4,0.5,0.8,0.3,1.3c0.7,0.9,1.7,1.5,2.5,2.2c1.1,1.6,2.1,3.1,3.2,4.7c0.5,0.9,0.6,2,1.7,2.5
			c1.5,3.3,4.2,5.8,5.3,9.3c-0.2,1.1,0.4,1.9,0.9,2.8c1.7,1.8,2.1,4.2,2.7,6.5c0.7,0.8,0,2.2,1.2,2.7c0.1,0.5,0.1,1.1,0.2,1.6
			c0.8,1,0,2.3,0.8,3.2c0.2,0.4,0.2,0.9,0.3,1.4c-0.1,0.9,0.2,1.7,0.1,2.6c-0.1,0.5,0.2,0.8,0.1,0.3c0,0,0.2-0.1,0.3-0.2
			c0.3-0.1,0.5,0,0.5,0.3c0.4,1.4,0.9,2.9,1.3,4.3c-0.4,1.2-0.6,2.4,0.2,3.5l0-0.1c0.3,0.4,0.3,0.8,0.3,1.3
			c-0.4,1.2-0.5,2.3,0.2,3.4c0.2,0.4,0.3,0.9,0.5,1.3c0,0.5,0,1-0.1,1.4c-0.4,1.9,0.3,3.8-0.2,5.8c-0.1,0.3,0,0.5,0.1,0.4
			c0.1-0.1,0.2-0.2,0.2-0.2c0.4,0,0.6,0.2,0.7,0.6c0,0.7,0,1.5,0,2.2c0,1,0,2.1-0.3,3.1c-0.1,1.1-0.1,2.1-0.1,3.2
			c0,100.7,0,201.4,0,302.1c0,0.9,0,1.9,0.1,2.8c0.3,1,0.3,2,0.3,3c0,0.5,0,1.1-0.4,1.4c-0.9,1.8-0.7,3.7-0.4,5.6
			c0.1,0.8,0.3,1.6-0.3,2.2c-1.2,1-0.5,2.3-0.6,3.5c0.1,0.4,0.3,0.9,0.5,1.3c0.6,1.5-1.5,1.7-1.3,2.9c1,1.4-1.2,2.8-0.1,4.2
			c-1.7,4.5-1.7,9.5-4.8,13.4c0.1,1.3-0.4,2.5-1,3.6c-0.2,1.1-1.3,1.9-1,3.1c-1.2,1.5-1.3,3.7-3.1,4.9c-0.9,1.6-1,3.7-2.8,4.7
			c0.2,1.1-0.5,1.7-1.1,2.5c-0.4,1.1-1.5,1.9-1.8,3.1c-1.6,1.5-2.7,3.4-3.8,5.4C540.3,521.1,539.3,522,538.8,523.3z"/>
		<path class="st1" d="M131,41.4c-0.9,0-1.9-0.1-2.8-0.1c0-0.1,0-0.3-0.1-0.4c0.8-0.1,1.7,0,2.4-0.3c1.5-0.7-2-1.3-0.2-1.5
			c2.6-0.2,5.3-1.4,7.8,0c1.5,0.8,2.8,0.6,4.4,0.5c6.1-0.3,12.2-0.4,18.4-0.4c10.1-0.1,20.1,0,30.2,0c2.1,0,4.2,0.1,6.3,0.1
			c35,0,70.1,0,105.1,0c26.6,0,53.2,0,79.8,0c15.9,0,31.8,0,47.7,0c8.8,0,17.6-0.5,26.3,0c2.1,0.1,4.5-1.5,6.6,0.5
			c0.5,0.5,1.8,0.2,2.7-0.4c0.4-0.3,1-0.7,1.2-0.6c3.2,2.5,6.9-0.6,10.3,0.9c-0.8,1.5-2,2.5-3.8,2.3c-2.2,0.7-4.4,0.7-6.6-0.1
			c-0.3-0.2-0.7-0.3-1.1-0.3c-1.3-0.3-2.6,0.1-4,0c-1.4,0-2.8,0-4.2-0.6c-1.5,0-3-0.2-4.5,0.2c-1.3,0.2-2.6,0.1-3.9,0.1
			c-99.3,0-198.7,0-298,0c-1.3,0-2.6,0.1-3.9-0.1c-1.7-0.3-3.4-0.5-5.1,0.2c-1.8,0.4-3.6,0-5.4,0.5c-1,0.1-1.9-0.4-2.9-0.2
			C132.8,41.9,131.9,42.3,131,41.4z"/>
		<path class="st2" d="M481.8,556.4c0.4,0,0.9,0,1.3,0c0.2,0.2,1.6,0.1,0.4,0.7c-1.6,0.8-3.6,0.4-5.2,1.5l-0.2,0l0.1,0.2l0.1-0.2
			c0.9,0.5,2,0.7,2.7,2.1c-5.3,0.9-10.3-3.3-15.2-0.2c0.2,0.1,0.6,0.3,1.1,0.6c-3.8-0.4-7.5-0.2-11.3-0.1
			c-6.1,0.2-12.3,0.4-18.4,0.4c-9.5,0.1-18.9,0-28.4,0c-7.4,0-14.8,0-22.2,0c-15.3,0-30.5,0-45.8,0c-18-0.1-36-0.3-54.1-0.2
			c-7.8,0-15.6-0.3-23.3-0.1c-10,0.3-20,0.1-30,0.1c-15.7,0-31.4,0.6-47.1-0.1c-5.9-0.3-11.8,0.3-17.8,0.1
			c-10.8-0.4-21.7,0-32.6-1.1c-3.7-0.4-7.5-0.6-11.2-1.4c-0.4-0.1-0.9,0.2-1.3,0.2c-0.8,0.1,1.7,2.6-0.7,1.1
			c-1.1-0.7-0.6-1.9,0.9-2.1c0.4-0.4,0.9-0.6,1.5-0.5c1.5,0.8,3.3,0.1,4.9,0.9c1.6,0.4,3.3,0.1,5,0.2c1.1,0.3,2.2,0.7,3.3,0.6
			c1.3,0,2.7,0.1,4,0.1c1.9,0,3.7,0,5.6,0c0.4,0,0.9,0,1.3,0c101.5,0,203,0,304.5,0c0.6,0,1.3,0,1.9,0c2.3-0.2,4.7-0.1,7.1-0.3
			c1.2-0.5,2.6-0.3,3.9-0.7c0.7-0.1,1.4,0.3,2.2,0.2c2.1-0.6,4.3-0.4,6.3-1.1c0.5,0,1-0.1,1.5-0.1C478.6,557,480.1,556,481.8,556.4z
			"/>
		<path class="st3" d="M562.8,146.6c0.1-1,0.1-1.9,0.2-2.9c0.2-0.3,0.3-0.4,0.5,0c0,28.2,0.1,56.4,0.1,84.5c0,75.7,0,151.3,0,227
			c0,1.3-0.1,2.6-0.1,3.9c-0.2,0.4-0.4,0.4-0.5,0c-0.1-1-0.1-1.9-0.2-2.9c-0.4-1.3-0.2-2.6-0.2-3.9c0-100.6,0-201.3,0-301.9
			C562.6,149.2,562.3,147.9,562.8,146.6z"/>
		<path class="st4" d="M37.3,293.6c0,0.3,0,0.5,0,0.8c0.6,4.6,0.2,9.2,0.2,13.7c0,15.4,0.1,30.8,0,46.3c0,0.6,0,1.2-0.2,1.7
			c0,0.3,0,0.5,0,0.8c0.6,6.8,0.3,13.7,0.2,20.5c-0.1,21.1,0.1,42.2,0,63.3c0,0.6-0.4,0.8-0.9,0.7c0-26.4-0.1-52.7-0.1-79.1
			c0-70.5,0-141,0-211.5c0-1.4,0.1-2.8,0.1-4.3c0.6-0.1,0.9,0.1,0.9,0.7c0.5,12.5,0,25,0.3,37.4c0.1,5.3-0.2,10.6,0.1,15.9
			c-0.7,29.6-0.2,59.2-0.4,88.8C37.5,290.7,37.7,292.2,37.3,293.6z"/>
		<path class="st5" d="M36.5,441.4c0.2,0,0.3,0,0.5,0c0.9,3.3,0.5,6.6,0.2,9.9c-0.3,0.7,0.2,1.6-0.7,2.1
			C36.5,449.4,36.5,445.4,36.5,441.4z"/>
		<path class="st6" d="M69.7,69.2c-1.8,2.3-4,4.4-6.2,6.3C64.7,72.5,66.8,70.4,69.7,69.2z"/>
		<path class="st7" d="M466.2,41.5c2.4,0.2,4.7,0.4,7.1,0.6c0.1,0.2,0.2,0.3,0.3,0.5c0,1.2-0.6,1.5-1.6,0.9c-0.4-0.6-1-0.6-1.6-0.5
			c-1.4,0.2-2.8,0.5-4.1-0.2c0-0.2,0-0.5,0-0.7c-0.2-0.1-0.3-0.2-0.2-0.3C466.1,41.6,466.2,41.5,466.2,41.5z"/>
		<path class="st8" d="M38.5,130.8c-0.2,1.3-0.4,2.5-0.5,3.8c0.2,1.7,0.4,3.3-0.1,5c-1.7-0.3-0.9-1.5-0.8-2.5
			c0.1-1.6,0.2-3.3,0.1-4.9C37.1,131.2,37.5,130.7,38.5,130.8z"/>
		<path class="st9" d="M490.5,553c1.8-1,3.3-3.5,5.6-0.8c-0.3,0-0.5,0-0.8,0.1c-0.9,0.6-2.1,0.1-2.9,1
			C491.8,553.3,491.1,553.5,490.5,553z"/>
		<path class="st10" d="M123.1,43.4c-0.3,0.3-0.5,0.5-0.8,0.8c-0.6,0.6-1.3,0.4-2,0.2c-0.3,0.1-0.5,0.3-0.8,0.4
			c-0.9,1-2.1,0.3-3.2,0.5c-0.4-0.2-0.5-0.5-0.3-0.9c2.4-0.5,4.7-1,7.1-1.5c0.2,0.1,0.3,0.2,0.2,0.3
			C123.3,43.4,123.2,43.4,123.1,43.4z"/>
		<path class="st11" d="M561.6,467.8c0.7-0.7,0.6-1.5,0.5-2.3c-0.2-1.4-0.5-2.9,0.2-4.3c1.6,0.5,0.9,1.6,0.7,2.6
			c-0.2,1.8,0.3,3.7-0.6,5.4c-0.3,0.3-0.6,0.3-1,0C561.1,468.7,561,468.2,561.6,467.8z"/>
		<path class="st12" d="M36.5,455.6c0.4,0,0.9,0,1.3,0c0.7,1,0.2,2.2,0.3,3.2c-0.2,0.7-0.4,1.5-1.1,1.8
			C36.2,459.1,36.4,457.3,36.5,455.6z"/>
		<path class="st13" d="M108.7,553.1c1.2-1.7,2.5-0.4,3.6,0c0.6,0.2-0.5,0.7-0.6,1.2c-1.2,0.4-1.9-0.8-2.9-0.8
			C108.8,553.3,108.8,553.2,108.7,553.1z"/>
		<path class="st14" d="M37.1,460.7c0.2-0.5,0.5-1,0.7-1.5c0.7,1.3,0.5,2.7,0.2,4.1c-0.1,0.8-0.2,1.6-0.2,2.4
			c0.1,0.3-0.1,0.5-0.4,0.5C37.2,464.4,37.1,462.5,37.1,460.7z"/>
		<path class="st15" d="M548,509.4c0.9-1.6,1.8-3.2,2.8-4.7C550.9,506.8,550.2,508.6,548,509.4z"/>
		<path class="st16" d="M113.9,555c1.8-0.7,3.4,0,4.9,0.8c0.2,0.1,0.3,0.3,0.2,0.4c-0.1,0.1-0.2,0.2-0.2,0.2
			C117.1,556.2,115.4,555.8,113.9,555z"/>
		<path class="st17" d="M40.9,483.4c1.3,1.1,1.9,2.5,1.1,4.2C41.1,486.4,41.1,484.9,40.9,483.4z"/>
		<path class="st18" d="M562.8,141.6c-0.2,0-0.4-0.1-0.6-0.1c-0.7-1-0.3-2.1-0.4-3.2c0.2-0.6,0.5-1,1.1-1.1c0.7,0.9,0.6,2,0.5,3
			C563.1,140.6,563.4,141.3,562.8,141.6z"/>
		<path class="st19" d="M506.1,52.8c-2,0-3.6-0.8-5-2.2C503,50.8,504.7,51.3,506.1,52.8z"/>
		<path class="st20" d="M42.3,111.8c0.1,1.5-0.3,2.9-0.9,4.3C39.8,114.3,41.5,113.1,42.3,111.8z"/>
		<path class="st21" d="M43.7,107.6c1.2,1.8-0.3,2.5-1.3,3.3C42.5,109.7,42.4,108.4,43.7,107.6z"/>
		<path class="st22" d="M480.5,44.3c-1.6,0.5-3.3,1.8-4.2-0.9C477.9,42.8,479,44.5,480.5,44.3z"/>
		<path class="st23" d="M472,43.5c0.7,0.1,1.2-0.2,1.6-0.9c0.6,0.1,1.3,0.2,1.9,0.3c-0.6,2.1-2.2,1.2-3.6,1.1c0,0-0.1-0.2-0.1-0.3
			C471.9,43.6,471.9,43.6,472,43.5z"/>
		<path class="st24" d="M38.5,469.8c0.6,1.6,1,3.3,0.8,5c0.3,0.7,0,0.7-0.6,0.7c-0.2-1.9-0.5-3.8-0.7-5.7
			C38.1,469.8,38.3,469.8,38.5,469.8z"/>
		<path class="st25" d="M533.1,529.3c0.4-1.8,1.5-2.9,3.3-3.3C535.7,527.4,534.6,528.5,533.1,529.3z"/>
		<path class="st26" d="M563,463.7c-0.2-0.8,0.1-1.8-0.7-2.4c-0.6-0.4-0.5-0.9-0.1-1.4c0.2-0.3,0.5-0.5,0.7-0.8c0.2,0,0.4,0,0.5,0
			C563.6,460.7,563.6,462.2,563,463.7z"/>
		<path class="st27" d="M38.5,469.8c-0.2,0-0.3,0-0.5,0c0.1-1.3-1.1-2.3-0.6-3.6c0.2-0.1,0.3-0.3,0.4-0.5
			C39.1,466.9,38.4,468.4,38.5,469.8z"/>
		<path class="st28" d="M490.4,46.4c-1.6,0.6-2.9,0.1-4.2-0.9c0-0.2,0-0.3,0-0.5C487.5,45.8,489.2,45.4,490.4,46.4z"/>
		<path class="st29" d="M37,137.1c0.3,0.8,0,1.7,0.7,2.3c0.7,0.5,0.4,1.2,0.4,1.8c-0.1,0.3-0.3,0.6-0.6,0.6c-0.6,0-0.8-0.5-1-0.9
			C36.4,139.6,36.4,138.3,37,137.1z"/>
		<path class="st30" d="M36.6,140.9c0.2,0.2,0.4,0.5,0.6,0.7c0.9,1.7,1.1,3.3-0.1,5c-0.2,0-0.3,0-0.5,0
			C36.5,144.7,36.6,142.8,36.6,140.9z"/>
		<path class="st31" d="M524.5,64.1c-1.2,0.1-2.5,0-2.8-1.5C523.1,62.2,524,62.8,524.5,64.1z"/>
		<path class="st32" d="M125.2,557.8c-0.4,0-0.9,0.1-1.3,0.1c-0.4-1-1.5-0.5-2.2-0.9l0-0.3c1.2,0,2.3-0.1,3.5-0.1
			C125.7,557,125.6,557.4,125.2,557.8z"/>
		<path class="st33" d="M500.4,550.6c0.5-1.9,2.1-1.8,3.6-2C503.3,550.1,501.6,549.9,500.4,550.6z"/>
		<path class="st34" d="M38.7,475.5c0.2-0.2,0.4-0.4,0.6-0.7c1.2,1.2,0.5,2.8,0.8,4.3C38.7,478.2,39.5,476.5,38.7,475.5z"/>
		<path class="st35" d="M512.5,544.8c0.5-1.8,2-2.2,3.6-2.5C515.3,543.7,513.8,544.1,512.5,544.8z"/>
		<path class="st15" d="M526,535.6c0.3-1.7,1.3-2.5,2.9-2.5C528.3,534.2,527.2,535,526,535.6z"/>
		<path class="st36" d="M538.8,523.3c0.1-1.7,0.9-2.7,2.6-2.9C540.8,521.6,539.9,522.5,538.8,523.3z"/>
		<path class="st37" d="M545.2,515c-0.3-1.5,0.7-2.3,1.8-3.1C547.1,513.3,546.2,514.1,545.2,515z"/>
		<path class="st38" d="M44.9,493.9c0.3,1.2,1.9,2,0.8,3.5C45.2,496.4,43.8,495.4,44.9,493.9z"/>
		<path class="st39" d="M554.7,496.8c0.4-1.2,0.8-2.5,1.2-3.7C556.9,494.8,555.9,495.8,554.7,496.8
			C554.6,496.8,554.7,496.8,554.7,496.8z"/>
		<path class="st40" d="M40,120.2c-0.1,1.2,0.6,2.7-0.9,3.6c-0.1,0-0.3,0-0.4,0c0.6-1.4,0.2-3.1,1.2-4.5
			C40.3,119.6,40.3,119.9,40,120.2z"/>
		<path class="st41" d="M558.5,117.5c0-0.5,0.1-1,0.1-1.5c0.2-0.3,0.4-0.3,0.6,0c0.3,1.4,1.1,2.7,0.8,4.2l-0.3,0l-0.3-0.1
			C558.9,119.3,558.5,118.5,558.5,117.5z"/>
		<path class="st42" d="M47.4,99.3c-0.4,0.9-0.1,2-1.2,2.6C45.7,100.5,46.1,99.7,47.4,99.3z"/>
		<path class="st43" d="M560.7,479.7c-1.6-1.4,0.3-2.8,0.1-4.2C562.4,476.9,560.3,478.3,560.7,479.7z"/>
		<path class="st44" d="M539.9,79c-1.6-0.2-2.4-1.2-2.6-2.8C538.6,76.7,539.4,77.7,539.9,79z"/>
		<path class="st45" d="M128.9,42.9c-0.7-0.1-1.5-0.2-2.2-0.2c0-0.1,0-0.3,0-0.4c1.3-0.1,2.7-0.2,4-0.3c0.8-0.3,1.1,0.1,1.1,0.9
			C130.8,43.3,129.8,43.2,128.9,42.9z"/>
		<path class="st46" d="M559.2,116c-0.2,0-0.4,0-0.6,0c-1.2-0.9-0.6-2.3-0.8-3.4C559.2,113.4,558.5,115,559.2,116z"/>
		<path class="st47" d="M46.4,102.4c-0.5,1-1,2-1.4,3C44.2,103.9,44.4,102.7,46.4,102.4z"/>
		<path class="st48" d="M542.7,82.5c-1.5,0-2-1.2-2.5-2.2C541.6,80.3,542.2,81.3,542.7,82.5z"/>
		<path class="st49" d="M528.1,67.7c-1-0.7-2.1-1.2-2.1-2.7C527.1,65.5,528.2,66.1,528.1,67.7z"/>
		<path class="st50" d="M74.8,64.9c-0.8,0.9-1.4,2.2-3,2C72.5,65.9,73.3,64.9,74.8,64.9z"/>
		<path class="st51" d="M99,50.6c-0.8,1.1-2,1.3-3.2,1.4C96.6,51,97.5,50,99,50.6z"/>
		<path class="st52" d="M500.3,50c-1.5,0.8-2.3,0.2-2.7-1.2C498.5,49.1,499.4,49.6,500.3,50z"/>
		<path class="st53" d="M486.1,45.1c0,0.2,0,0.3,0,0.5c-1.3,0.5-2.3-0.7-3.6-0.6C483.8,43.4,484.9,45.3,486.1,45.1z"/>
		<path class="st54" d="M116,44.4c0,0.2,0,0.4,0,0.6c-0.1,1.6-1.2,0.9-2,0.9c-0.4-0.1-0.9-0.2-1.3-0.3
			C113.5,44.5,114.9,44.9,116,44.4z"/>
		<path class="st55" d="M126.7,42.3c0,0.1,0,0.3,0,0.4c-0.9,1.3-2.3,0.7-3.5,0.8c0-0.2,0-0.3,0-0.5
			C124.3,42.7,125.5,42.5,126.7,42.3z"/>
		<path class="st56" d="M131.6,42.7c-0.3-0.3-0.6-0.5-0.9-0.8c0.1-0.2,0.2-0.4,0.3-0.5c0.9,0,1.8,0,2.8,0.1c0.2,0.1,0.3,0.3,0.2,0.4
			c-0.1,0.1-0.1,0.2-0.2,0.2c-0.2,0.2-0.5,0.5-0.7,0.7C132.5,43.2,132,43.2,131.6,42.7z"/>
		<path class="st57" d="M554.7,496.8C554.7,496.8,554.6,496.8,554.7,496.8c0.5,1.2-0.2,2.1-0.8,3
			C552.7,498.4,554.2,497.7,554.7,496.8z"/>
		<path class="st58" d="M75.3,535.9c1.7-0.2,2.3,1.2,3,2.3C77.2,537.7,76,537.2,75.3,535.9z"/>
		<path class="st59" d="M82.2,540.2c0.8,0.9,2.5,0.8,2.5,2.4C83.7,542,82.1,541.9,82.2,540.2z"/>
		<path class="st60" d="M97.6,549.3c1.5-0.9,2.3-0.2,2.8,1.2C99.4,550.2,98.5,549.7,97.6,549.3z"/>
		<path class="st61" d="M101.1,550.7c1.5-0.8,2.3-0.2,2.7,1.2C102.9,551.6,102,551.2,101.1,550.7z"/>
		<path class="st62" d="M108.7,553.1c0,0.1,0,0.3,0.1,0.4c-1.3-0.1-2.6-0.2-3.5-1.2C106.5,552.2,107.8,552,108.7,553.1z"/>
		<path class="st53" d="M490.5,553c0.7,0,1.4,0,2.1-0.1c0.2,0.1,0.3,0.3,0.2,0.4c-0.1,0.1-0.1,0.2-0.2,0.2c-1.2-0.2-2.3,1.7-3.6,0.2
			C489.6,553.7,490.1,553.5,490.5,553z"/>
		<path class="st63" d="M563,137.2c-0.2,0.3-0.5,0.5-0.7,0.8c-0.7-0.9-0.5-1.8-0.2-2.7c0-0.5,0.1-1,0.1-1.5c0.2-0.2,0.4-0.2,0.6,0
			C562.8,134.9,562.9,136,563,137.2z"/>
		<path class="st64" d="M561.4,129.5c0-0.5,0.1-1,0.1-1.5c1.3,0.9,0.5,2.3,0.8,3.5c0.2,0.8-0.2,1-0.9,0.9
			C561,131.4,561,130.5,561.4,129.5z"/>
		<path class="st65" d="M40,120.2c0-0.3,0-0.6-0.1-0.9c0.2-1.1-0.5-2.6,1.5-2.8C40.6,117.7,41.1,119.3,40,120.2z"/>
		<path class="st66" d="M59.3,520.3c1.4,0.1,2,0.9,1.9,2.2C60.4,522,59.7,521.3,59.3,520.3z"/>
		<path class="st67" d="M561.6,132.3c0.2-0.3,0.5-0.5,0.7-0.8c0.7,0.7,0.7,1.5,0.5,2.3c-0.2,0-0.4,0-0.6,0c-0.3-0.3-0.5-0.5-0.8-0.8
			c-0.2-0.2-0.2-0.4-0.1-0.5C561.4,132.3,561.5,132.3,561.6,132.3z"/>
		<path class="st68" d="M71.8,533.1c1.4,0,2.1,0.6,2.2,2C73.1,534.6,72.3,534,71.8,533.1z"/>
		<path class="st69" d="M60.5,78.2c0.1,1.4-0.5,2.2-1.9,2.3C59,79.4,59.7,78.7,60.5,78.2z"/>
		<path class="st70" d="M523.2,537.8c0.1-1.4,0.9-2,2.3-1.9C524.9,536.8,524.1,537.4,523.2,537.8z"/>
		<path class="st71" d="M518.2,541.3c0.1-1.5,1.1-1.9,2.4-1.8C520,540.4,519.2,540.9,518.2,541.3z"/>
		<path class="st72" d="M547.6,89.7c-1.4-0.2-1.8-1.2-1.7-2.5C546.8,87.8,547.3,88.7,547.6,89.7z"/>
		<path class="st73" d="M562.8,141.6c0.2-0.5,0.4-0.9,0.6-1.4c0,1.2,0,2.3,0,3.5c-0.2,0-0.3,0-0.5,0
			C562.9,143,562.9,142.3,562.8,141.6z"/>
		<path class="st74" d="M553.8,101.8c-0.9-0.8-2-1.4-0.9-2.8C553.3,99.8,553.8,100.7,553.8,101.8z"/>
		<path class="st75" d="M561.6,469.1c0.3,0,0.5,0,0.8,0c-0.1,1.1-0.2,2.3-0.3,3.4c-0.2-0.2-0.5-0.5-0.7-0.7
			C561.1,470.9,560.8,470,561.6,469.1z"/>
		<path class="st76" d="M492.5,553.5c0-0.2,0-0.4,0-0.6c0.7-1.2,1.8-0.6,2.8-0.7C494.7,553.3,493.4,553,492.5,553.5z"/>
		<path class="st77" d="M121.7,556.7l0,0.3c-1-0.2-1.9-0.4-2.9-0.6c0-0.2,0-0.4,0-0.6C119.9,555.8,121.1,555.3,121.7,556.7z"/>
		<path class="st78" d="M77.6,62.2c-0.1,1.4-1,1.9-2.3,1.8C75.8,63.2,76.6,62.6,77.6,62.2z"/>
		<path class="st79" d="M557.7,111c-1.8-0.2-1.1-1.7-1.2-2.7C557.6,108.8,557.2,110.1,557.7,111z"/>
		<path class="st80" d="M38.7,123.8c0.1,0,0.3,0,0.4,0c0,0.9,0.3,1.9,0,2.6c-0.3,0.7-0.3-0.3-0.6-0.5
			C38.6,125.2,38.7,124.5,38.7,123.8z"/>
		<path class="st81" d="M561.5,128.1c-1-1.1-1.1-2.3-0.2-3.5C561.4,125.7,561.5,126.9,561.5,128.1z"/>
		<path class="st82" d="M479.7,467.6c-0.8,1.2-2,2-2.1,3.6c-0.5,1-0.9,2.1-1.9,2.7c-2.5,2.3-4.7,4.9-7.3,7.1c-0.3,0.3-0.5,0.7-0.8,1
			c-0.2,0.2-0.5,0.4-0.8,0.5c-0.7,0.4-1.4,0.8-2,1.2c-1.7,1.3-3.4,2.6-5.1,3.8c-0.8,0.8-1.9,0.9-2.9,1.4c-0.2,0-0.4,0-0.5,0.1
			c-4.2,0-7.5,3.1-11.6,3.5c-1.3,0.1-2.5,0.6-3.8,0.8c-3.1,0.5-6.1,0.6-9.2,0.6c-87.9,0-175.9,0-263.8,0c-3-0.6-6-0.2-9-0.7
			c-1.4,0-2.6-0.7-4-0.6c-0.2,0-0.3,0.1-0.5,0.1c-2.1-1-4.2-1.6-6.5-1.6c-0.5-0.6-1.5-0.2-1.7-1.1c-0.5-1.2-1.7-1.3-2.7-1.7
			c-1.8,0.4-3.1-0.6-4.1-1.9c-0.6-1-1.9-0.8-2.6-1.7c-1.9-0.2-3.5-0.8-4.5-2.4c-0.3-1.1-1.2-1.4-2.1-1.9c-0.6-0.2-1-0.7-1.4-1.1
			c-1.3-1.3-2.6-2.6-3.9-3.9c-0.4-0.4-0.9-0.8-1.1-1.4c-0.6-0.8-0.6-2-1.7-2.5c-0.9-0.4-1.3-1.2-1.8-1.9c-0.5-0.9-1-1.8-1.5-2.7
			c0-1.4-0.5-2.6-1.6-3.6c-0.2-0.4-0.4-0.8-0.5-1.2c-0.1-1.5-1.3-2.4-1.9-3.6c-0.3-1.4-1.1-2.6-1.5-4c-0.3-3.2-1.9-6.1-2.1-9.3
			c0-0.6,0-1.3,0.2-1.9c0.3-2,0.2-4,0.2-6c0-82.6,0-165.3,0-247.9c0-3.1,0-6.1,0.2-9.2c-0.1-0.6-0.3-1.2-0.5-1.8
			c-0.1-1.9,1.1-3.5,1.1-5.3c-0.5-1.4-0.1-2.7,0.4-3.9c0.1-1.3,0.6-2.5,1.3-3.6c1.8-0.1,0.6-2.4,2-2.7c0.6-1.4,1.3-2.8,1.9-4.2
			c0.9-0.7,1-1.9,1.7-2.7c0.2-0.3,0.4-0.5,0.6-0.8c0.8-0.9,1-2.2,2-3c1.2-0.9,1.7-2.2,2.4-3.5c0.4-0.9,1.2-1.4,1.9-2
			c0.3-0.3,0.6-0.6,0.8-0.8c0.6-0.6,1-1.5,2-1.7c1.1-0.5,2.1-1.1,2.9-2c2.8-1.2,5-3.2,7.2-5.1c0.8-1.1,2-1.2,3.1-1.6
			c0.9-0.2,1.7-0.5,2.6-0.7c3.5-0.5,6.7-2,10.1-2.6c3.4-0.7,6.8-1,10.2-1.7c8.8-0.1,17.7,0.1,26.5-0.1c0.4-0.1,0.7-0.3,0.9-0.7
			c0.2-0.3,0.4-0.6,0.6-1c0.6-6.1,0.3-12.1,0.1-18.2c-0.1-0.5-0.2-1.1-0.1-1.6c0.4-1.8,1-3.4,2-5c0.2-0.3,0.7-0.6,0.5-1.1
			c2-1.9,4-3.7,6.7-4.5c0.5-0.4,1-0.6,1.6-0.6c1.5,0,3,0,4.6,0c0.6,0,1.1,0.2,1.6,0.6c3.4-0.1,4.6,3.3,7.3,4.3
			c0.2,0.3,0.4,0.6,0.6,0.9c0.9,1.9,1.8,3.8,2,5.9c0,0.4-0.1,0.8-0.2,1.1c-0.1,6.1-0.5,12.3,0.3,18.4c0.2,0.3,0.5,0.7,0.8,0.9
			c0.2,0.1,0.4,0.2,0.6,0.3c0.7,0.2,1.4,0.2,2.1,0.2c50.7,0,101.4,0,152.1,0c0.9-0.1,1.5-0.5,2.1-1.1c1.1-6.6,0.3-13.3,0.4-20
			c-0.3-1.1,0-2.2-0.1-3.2c0.2-1,0.6-2,1.4-2.6c0.2,0,0.3,0,0.5,0c1.2-1.3,2.6-2.4,4.1-3.4c3.6-1.5,7.1-3.4,11.1-1.2
			c1.1,0.5,2.2,0.9,3.3,1.5c1.5,1.2,3.2,2.2,4,4.1c1.4,2.1,2.4,4.2,2.4,6.8c0.2,6.1-0.4,12.1,0.3,18.2c0.2,0.3,0.5,0.6,0.9,0.9
			c7.8,0.5,15.6,0.1,23.4,0.2c3.5,0.6,7,0.2,10.5,0.8c1.4,0.6,2.9,1.3,4.5,1.1c2,0.5,4,1.2,6,1.8c0.1,0.2,0.3,0.4,0.4,0.6
			c2-0.2,3.6,1,5.4,1.4c1.5,0.3,2.8,0.7,3.4,2.3c1.2,0.3,2.4,0.6,3.4,1.4c0.5,0.3,1.1,0.6,1.6,0.9c0.7,0.5,1.5,0.9,2.2,1.4
			c0.4,0.3,0.7,0.6,1,0.9c0.9,0.8,1.7,1.7,2.7,2.4c0.5,0.3,1,0.7,1.4,1.1c0.8,0.7,1.6,1.5,2.2,2.3c0.6,1,1.5,1.9,2.2,3
			c0.2,0,0.3,0,0.5,0c0.7,0.7,1.4,1.3,1.9,2.2c0,0.4,0,0.8,0,1.2c0.9,1.2,1.1,2.7,2.4,3.6c0.3,0.2,0.7,0.5,1,0.7
			c1.1,1.1,1.6,2.6,2.2,4c0.1,1.6,0.2,3.3,1.5,4.5c0,0.3,0,0.6,0,0.8c0.7,2.2,0.8,4.7,2,6.8c0.1,0.4,0.2,0.7,0.2,1.1
			c0.1,2,1,3.9,0.4,5.9c-0.1,1.9-0.1,3.8-0.1,5.7c0,81.5,0,163,0,244.5c0,2-0.2,4,0.3,6c0.3,0.8,0.2,1.7,0.1,2.6
			c-0.5,5.7-2.3,11.1-4.3,16.5c-0.6,3.1-1.8,6-3.4,8.8C480.9,466.9,480.5,467.6,479.7,467.6z"/>
		<path class="st83" d="M138.8,558.5c1.1-1,2.5-0.5,3.8-0.5c105,0,210,0,315,0c1.3,0,2.6-0.4,3.7,0.6c-1.7,0.8-3.5,0.8-5.3,0.8
			c-103,0-206.1,0-309.1,0C144.2,559,141.3,560.1,138.8,558.5z"/>
		<path class="st84" d="M562.8,146.6c0,36,0.1,72,0.1,107.9c0,65.3,0,130.7,0,196c0,1.9-0.1,3.8-0.1,5.7c-1-1.1-0.6-2.5-0.6-3.7
			c0-100.7,0-201.5,0-302.2C562.2,149.1,561.7,147.7,562.8,146.6z"/>
		<path class="st85" d="M453.4,41.5c-1.1,1-2.5,0.5-3.8,0.5c-99.7,0-199.3,0-299,0c-1.4,0-2.9,0.5-4.1-0.5c0.2-0.1,0.4-0.3,0.6-0.4
			c0.7-0.1,1.4-0.1,2.1-0.1c101,0,201.9,0,302.9,0C452.7,41,453.1,41.2,453.4,41.5z"/>
		<path class="st86" d="M444.9,493.2c-2.3,1.1-4.7,1.4-7.1,1.4c-89.7,0-179.5,0-269.2,0c-0.2-0.5,0-0.9,0.5-1
			c50.4-0.1,100.9,0,151.3,0c35.8,0,71.5,0,107.3,0c4.5,0,9,0.3,13.4-0.7C442.3,493.6,443.8,491.4,444.9,493.2z"/>
		<path class="st87" d="M109.6,180c0.3,0.5,0.5,1,0.8,1.5c1.2,1.3,0.9,2.9,0.9,4.4c0,83.9,0,167.9,0,251.8c0,1.4,0.2,2.9-0.7,4.1
			c-0.4,0.4-0.8,0.5-1.2,0.2c-0.3-1.3-0.2-2.6-0.2-3.9c0-78.8,0-157.7,0-236.5c0-1.3-0.3-2.6,0.3-3.9c0-0.3,0-0.5,0-0.8
			C109.1,191.3,109,185.6,109.6,180z"/>
		<path class="st88" d="M110.4,442.1c0-85.8,0-171.6-0.1-257.4c0-1.1,0.1-2.1,0.1-3.2c0.2-0.1,0.4-0.1,0.5-0.2
			c0.4,0.3,0.6,0.7,0.7,1.2c0.2,1.5,0.1,3.1,0.1,4.6c0,83.8,0,167.5,0,251.3c0,1.1,0.1,2.2-0.3,3.3
			C111.2,442.1,110.9,442.3,110.4,442.1z"/>
		<path class="st89" d="M490.4,182.1c1.2,1,0.7,2.4,0.7,3.7c0,83.8,0,167.5,0,251.3c0,1.2,0.5,2.6-0.7,3.7c-1.1-1.1-0.9-2.6-1-4
			c0-82.8,0-165.6,0-248.5C489.4,186.2,488.9,183.9,490.4,182.1z"/>
		<path class="st90" d="M490.4,182.1c0,85,0,170,0,255c-0.7,0.5-1.2,0.4-1.7-0.3c-0.1-0.4-0.1-0.9-0.1-1.3c0.1-17.3,0-34.6,0.1-51.8
			c0-64.6,0-129.2,0-193.8c0-1.7,0-3.3,0-5c0-0.4-0.1-0.9-0.1-1.3c0.1-0.7,0.4-1.2,1.2-1.4C489.9,182.1,490.2,182.1,490.4,182.1z"/>
		<path class="st91" d="M109.5,197.7c0,54.8,0,109.6,0.1,164.4c0,26.6,0,53.3,0.1,79.9c0.5,0.7,0.6,1.5,0,2.2
			c-1.2-1-0.7-2.4-0.7-3.7c0-79.7,0-159.4,0-239.1C108.9,200.2,108.5,198.8,109.5,197.7z"/>
		<path class="st92" d="M221.9,129.4c50.6,0,101.2,0,151.9,0c1,0,2.2,0.4,2.9-0.7c-0.5-6.8-0.2-13.6-0.2-20.3
			c0.9-0.7,1.2,0.1,1.6,0.6c0.8,6.5,0.3,12.9,0.3,19.4c0,0.7-0.4,1.4-0.9,1.9c-0.8,0.3-1.6,0.2-2.5,0.2c-51.1,0-102.2,0-153.2,0
			c-0.2-0.2-0.7,0-0.6-0.6C221.2,129.4,221.6,129.6,221.9,129.4z"/>
		<path class="st93" d="M37.3,293.6c0-28.3-0.1-56.6-0.1-84.8c0-2.7,0.1-5.4,0.1-8.2c1.7-0.1,0.4,1.7,1.3,2.1
			c-0.2,5.4-0.7,10.8-0.7,16.2c-0.1,23.5,0,47-0.1,70.6C37.8,290.8,38.3,292.3,37.3,293.6z"/>
		<path class="st94" d="M38.6,202.7c-0.4-0.7-0.9-1.4-1.3-2.1c0-16.2-0.1-32.5-0.1-48.7c0-1.8-0.1-3.5-0.1-5.3c0-1.7,0.1-3.3,0.1-5
			c0.2,0,0.4,0,0.7-0.1c0.4,0.1,0.5,0.5,0.7,0.7C38,162.4,38.3,182.5,38.6,202.7z"/>
		<path class="st93" d="M37.2,451.3c-0.1-3.3-0.1-6.6-0.2-9.9c0-26.7,0.1-53.5,0.1-80.2c0-1.4,0.1-2.8,0.1-4.3
			c1.1,1.2,0.6,2.7,0.6,4.1c0,17.6,0,35.2,0,52.8c0,11.3,0,22.5,0,33.8C37.8,448.8,38.3,450.2,37.2,451.3z"/>
		<path class="st93" d="M37.2,356.1c0-20.6,0-41.1,0-61.7c0.9,0.9,0.9,2.2,0.9,3.3c0,15-0.2,29.9-0.3,44.9
			C37.8,347.1,38.4,351.6,37.2,356.1z"/>
		<path class="st95" d="M192,129.4c0-5.6,0-11.3,0.1-16.9c0-1.2-0.4-2.6,0.7-3.7c0.7,0.2,1,0.8,1.3,1.4c0.4,5.7,0.1,11.5,0.1,17.2
			c0,1-0.2,1.9-0.8,2.7l0.1-0.1c-0.2,0.2-0.5,0.3-0.8,0.2C192.3,130.2,192,129.9,192,129.4z"/>
		<path class="st96" d="M406.6,129.5c9.6,0,19.1,0,28.7,0c1.3,0,2.9-0.5,4,0.8c0.2,0.4,0.2,0.7-0.2,0.9c-0.9,0.1-1.8,0.1-2.7,0
			c-1.3-0.4-2.6-0.2-3.9-0.3c-1-0.2-2-0.4-3-0.3c-7.7,0-15.4,0.1-23.1,0c-0.2-0.2-0.7-0.1-0.5-0.6
			C406,129.4,406.4,129.6,406.6,129.5z"/>
		<path class="st97" d="M192,129.4c0.2,0.2,0.5,0.5,0.7,0.7c-2,0.9-4.1,0.4-6.2,0.4c-6.9,0.1-13.9,0-20.8,0
			c-1.7-0.5-3.2,1.2-4.9,0.2c-1.1-1-1-1.3,0.6-1.3c5.5,0.1,11,0,16.5,0C182.6,129.5,187.3,129.4,192,129.4z"/>
		<path class="st98" d="M221.9,129.4c-0.2,0.2-0.5,0.4-0.7,0.6c-0.2,0.4-0.5,0.4-0.7,0.1l0.1,0.1c-1-1.3-0.8-2.9-0.8-4.4
			c0.1-5.3-0.2-10.5,0.2-15.8c0.4-1-0.1-2-0.4-2.9c0.2-0.5,0.5-0.6,0.9-0.3c1.8,3.6,0.8,7.5,0.9,11.2
			C221.4,121.8,220.7,125.7,221.9,129.4z"/>
		<path class="st99" d="M406.6,129.5c-0.2,0.2-0.5,0.4-0.7,0.6c-0.2,0.4-0.5,0.4-0.7,0.1l0.1,0.1c-0.9-6.4-0.2-12.8-0.4-19.2
			c0.6-2.2-2-4-0.8-6.3c1.7,1.6,1.9,3.7,1.9,5.8c0,5,0,9.9,0,14.9C405.9,126.8,405.7,128.2,406.6,129.5z"/>
		<path class="st100" d="M160.8,130.8c1.4,0.2,2.7-1.1,4.2-0.4c0.2,0.1,0.3,0.3,0.2,0.4c-0.1,0.1-0.1,0.2-0.2,0.2
			c-6.7,0.6-13.2,2.5-19.9,3.6c3.4-1.7,7.2-2.3,10.7-3.5c0.8-0.9,1.7-0.5,2.6-0.3C159.3,130.8,160.1,130.8,160.8,130.8z"/>
		<path class="st101" d="M484.7,457.6c1.2-5.4,2.4-10.8,3.6-16.2c0.3-0.3,0.6-0.2,0.9,0.1c0.4,1.4-0.1,2.8-0.3,4.2
			c-0.3,1.2-0.4,2.4-0.9,3.5c0.1,1.2-0.3,2.4-0.9,3.4C485.6,454,486.4,456.4,484.7,457.6z"/>
		<path class="st102" d="M444.9,493.2c-0.9-1-1.9,0.3-2.9-0.1c-0.2-0.1-0.3-0.3-0.2-0.4c0.1-0.1,0.2-0.2,0.2-0.2
			c4.2-1.3,8.5-2.1,12.5-4.1c0.7-0.3,1.4-0.1,1.8,0.6c-1.3,1.7-3.8,0.4-5.2,2c-1.4,1.1-3.2,1.2-4.8,1.5
			C445.9,492.8,445.4,493,444.9,493.2z"/>
		<path class="st103" d="M376.8,108.2c0,6.8-0.1,13.7-0.1,20.5c-1.4-4.8-0.4-9.7-0.6-14.5c-0.1-2.2-0.8-4.6,0.7-6.8
			c0.2,0.2,0.3,0.3,0.2,0.5C376.9,108.1,376.9,108.2,376.8,108.2z"/>
		<path class="st104" d="M138.8,558.5c2.6,0.1,5.2,0.1,7.8,0.2c0.4,0.5,1.8-0.1,1.4,1.3c-1.8,0-3.7,0-5.5,0c-1.2-0.7-2.5,0-3.7-0.5
			c-1.2-0.1-2.4-0.2-3.6-0.3c-0.4-0.5-0.4-1,0-1.4c0.5-0.2,1-0.3,1.5,0.2C137.2,558.7,138,558.6,138.8,558.5z"/>
		<path class="st91" d="M109.6,180c0,5.7-0.1,11.3-0.1,17c-1.3-5.6-0.5-11.3-0.5-16.9c0-0.1,0.2-0.1,0.3-0.1
			C109.4,179.8,109.5,179.9,109.6,180z"/>
		<path class="st105" d="M395.9,99c-4.2-1.2-8.2-0.2-12.1,1.4c-0.2,0.3-0.4,0.3-0.6,0c0.9-2.3,3.6-1.3,5-2.7c2-0.7,4.1-0.8,6.1,0
			c0.5,0.2,1,0.5,1.6,0.7c0.2,0.1,0.3,0.2,0.2,0.3C396.1,98.9,396,99,395.9,99z"/>
		<path class="st106" d="M111.7,445.6c1.1,3,1.9,6.1,2.2,9.2c-0.2,0.2-0.5,0.2-0.8,0.2c-0.3-0.3-0.4-0.7-0.6-1.1
			c-0.1-0.7-0.1-1.3-0.2-2c-0.9-1-0.8-2.4-1.3-3.5l0,0.1c-0.7-0.8-0.3-1.8-0.3-2.7C111,445.4,111.4,445.4,111.7,445.6z"/>
		<path class="st107" d="M468.5,481c1.6-3.3,4.4-5.4,7.2-7.6c0.2,0.6,0.2,1.1-0.4,1.4c-0.2,0.2-0.4,0.4-0.5,0.5
			c-1.2,2.2-3,3.8-5.1,5.1C469.3,480.6,468.9,480.8,468.5,481z"/>
		<path class="st108" d="M488.4,445.7c0.1-1.4,0.3-2.9,0.4-4.3c0-1.4-1-2.9,0.3-4.3c0.4,0,0.8,0,1.3,0c0,1.2,0,2.4,0,3.6
			c-1.6,1.6,0.2,4.1-1.4,5.7C488.7,446.2,488.5,446,488.4,445.7z"/>
		<path class="st109" d="M474.1,148.7c-0.9-0.6-1.8-1.3-2-2.4c0-0.3,0.1-0.5,0.5-0.4c1.9,1.3,4,2.5,4.3,5.1
			C475.4,150.9,474.9,149.6,474.1,148.7z"/>
		<path class="st110" d="M193.3,109.6c-0.2-0.2-0.4-0.5-0.6-0.7c0.2-2.6,0.5-5.1,3.3-6.3c0.1,0.1,0.3,0.2,0.4,0.3
			c0,0-0.1,0.2-0.1,0.2c-1.1,1.6-1.9,3.4-2.5,5.2C193.8,108.8,193.9,109.3,193.3,109.6z"/>
		<path class="st111" d="M204.1,98.2c-0.4,0-0.9-0.1-1.3-0.1c2-1.9,5.9-1.9,7.7,0c-0.5,0-0.9,0-1.4,0.1
			C207.4,97.6,205.7,97.6,204.1,98.2z"/>
		<path class="st112" d="M487.7,175.6c-1.2-2.2-1.9-4.4-1.5-6.9c1.8,1.2,1.1,3.3,1.6,4.9C488.2,174.3,488.2,175,487.7,175.6z"/>
		<path class="st34" d="M456.4,558.7c1.6-0.1,3.2-0.1,4.9-0.2c0.5,0,0.9,0,1.4,0.1c0.6-0.2,0.8,0.1,0.7,0.7c-2.3,0.2-4.7,0.4-7,0.7
			C455.9,559.5,455.9,559.1,456.4,558.7z"/>
		<path class="st105" d="M404,104.7c-0.1,2,1.5,3.6,1.1,5.6c-0.2,0.3-0.4,0.3-0.6,0c-0.7-2.1-1.4-4.3-2.2-6.4
			c-0.2-0.2-0.3-0.4-0.2-0.6c0.1-0.2,0.1-0.3,0.2-0.3c0.4-0.1,0.6,0,0.7,0.4C403.3,103.8,403.6,104.3,404,104.7z"/>
		<path class="st113" d="M469.7,480.4c1.7-1.7,3.4-3.4,5.1-5.1C474,478,472.3,479.6,469.7,480.4z"/>
		<path class="st114" d="M125.2,557.8c0-0.4,0-0.8,0-1.2c0.8,0.2,1.5,0.3,2.3,0.5c0.9-0.2,1.8-0.4,2.7,0.1c0,0.2,0,0.5,0,0.7
			c0.2,0.1,0.3,0.3,0.3,0.4c-0.1,0.1-0.2,0.2-0.2,0.2C128.5,558.7,126.8,558.6,125.2,557.8z"/>
		<path class="st115" d="M111.2,445.6c0,1-0.1,1.9-0.1,2.9c-1.6-1.1,0-3.2-1.5-4.3c0-0.7,0-1.4,0-2.2c0.2,0,0.5,0,0.7,0
			c0.2,0,0.4,0.1,0.5,0.1C112.1,443.3,111.3,444.5,111.2,445.6z"/>
		<path class="st116" d="M136.6,41.4c1.6-0.8,3.3-0.8,5-0.6c0.4,0.4,1.1,0.1,1.4,0.6c0,0.2,0,0.4-0.1,0.6c-1,0.7-2.2,0.3-3.3,0.3
			C138.7,42,137.4,42.4,136.6,41.4z"/>
		<path class="st24" d="M130.2,558.5c0-0.2,0-0.4,0-0.6c0.7,0,1.5,0,2.2-0.1c0.9-0.3,1.9-0.6,2.7,0.2c0,0.4,0,0.8,0,1.2
			C133.4,559.7,131.8,559.2,130.2,558.5z"/>
		<path class="st117" d="M475.4,557.2c-2,1-4.1,1.4-6.3,1.3c-0.2-0.1-0.3-0.2-0.2-0.3c0.1-0.1,0.2-0.2,0.2-0.2
			C471.1,556.8,473.3,557.3,475.4,557.2z"/>
		<path class="st118" d="M114.5,165.6c-0.9,1-1,2.4-1.4,3.6c-0.2,0.2-0.5,0.2-0.7,0c0.3-2.4,0.8-4.7,2.7-6.4
			C116.3,164.1,115,164.8,114.5,165.6z"/>
		<path class="st119" d="M139.3,42c1.2,0,2.4,0,3.6,0.1c-2.6,1.4-5.2,1-7.8,0.1C136.5,41.4,137.9,41.7,139.3,42z"/>
		<path class="st120" d="M450.7,133.8c-2-0.1-4-0.4-5.8-1.5c-0.2-0.2-0.3-0.3-0.2-0.5c0.1-0.1,0.2-0.2,0.3-0.2
			C447.2,131.5,448.9,132.8,450.7,133.8z"/>
		<path class="st121" d="M38,463.3c-0.1-1.4-0.1-2.8-0.2-4.1c0-1.2,0-2.4,0-3.6C39.2,458.2,38.8,460.7,38,463.3z"/>
		<path class="st122" d="M113.1,172.7c-0.6,1.7-0.2,3.6-1.4,5.1c-0.4,0.3-0.7,0.2-0.9-0.1c-0.1-0.9-0.3-1.8,0.2-2.7
			c0.8-0.3,0.7-0.9,0.7-1.5C112,172.9,112.4,172.5,113.1,172.7z"/>
		<path class="st123" d="M472.5,145.9c-0.2,0.1-0.4,0.2-0.5,0.4c-0.5-0.2-1-0.3-1.5-0.5c-0.7-1.1-1.7-1.8-2.3-3c0-0.2,0-0.3,0.1-0.5
			C470.5,142.6,471.5,144.2,472.5,145.9z"/>
		<path class="st124" d="M168.6,494.1c0,0.2,0,0.4,0,0.6c-2.8-0.3-5.8,0.7-8.5-0.7c0.1-0.1,0.3-0.3,0.4-0.4c1.9-0.6,3.9-0.3,5.9-0.2
			C167.1,493.7,168,493.4,168.6,494.1z"/>
		<path class="st125" d="M376.8,108.2c0-0.3,0-0.5,0-0.8c1.3-1.2,0.8-3.7,3-4.2c-0.1,1-1.2,1.8-0.7,3c-0.6,0.9,0.1,2.5-1.5,2.9
			C377.3,108.8,377.1,108.5,376.8,108.2z"/>
		<path class="st126" d="M38.5,142.3c-0.2-0.2-0.5-0.5-0.7-0.7c0-0.7,0-1.4-0.1-2.1c0.1-1.6,0.2-3.2,0.2-4.8
			C39.2,137.1,38.3,139.7,38.5,142.3z"/>
		<path class="st127" d="M394.3,97.7c-2,0-4.1,0-6.1,0c1.9-1.8,4.1-0.7,6.2-0.6c0,0,0.1,0.2,0,0.3C394.5,97.5,394.4,97.6,394.3,97.7
			z"/>
		<path class="st128" d="M486.1,167.8c-2.3-0.6-2.1-2.5-2.1-4.2c1.5-0.2,0.9,1.2,1.4,1.8C485,166.4,486.9,166.7,486.1,167.8z"/>
		<path class="st129" d="M446.4,492.6c1.6-0.5,3.2-1,4.8-1.5C450.1,493.2,448.3,493,446.4,492.6z"/>
		<path class="st130" d="M485.4,165.4c-0.5-0.6-0.9-1.2-1.4-1.8c0-1.6-1.3-2.8-1.6-4.3C484.7,160.7,485.4,162.9,485.4,165.4z"/>
		<path class="st131" d="M113.1,172.7c-0.5,0.2-0.9,0.5-1.4,0.7c-0.3-1.5-0.3-2.9,0.7-4.1c0.2,0,0.5,0,0.7,0
			C113.4,170.4,111.8,171.6,113.1,172.7z"/>
		<path class="st132" d="M562.1,135.2c0.1,0.9,0.1,1.8,0.2,2.7c0,1.2,0,2.4,0,3.6C560.9,139.5,561.2,137.3,562.1,135.2z"/>
		<path class="st133" d="M457.7,40.8c1.3,0,2.7,0,4,0c0.5,0,0.6,0.2,0.5,0.7c-0.5,0.6-1.2,0.7-1.9,1c-0.9,0-1.8,0.3-2.6-0.3
			c0-0.2,0-0.5,0-0.7c-0.2-0.1-0.3-0.2-0.3-0.4C457.6,40.9,457.6,40.8,457.7,40.8z"/>
		<path class="st134" d="M457.7,42.1c1,0,1.9,0,2.9-0.1c1.4-0.3,2.8-1.2,4.2,0.2C462.4,43.1,460.1,43.2,457.7,42.1z"/>
		<path class="st135" d="M475.3,474.8c0.1-0.5,0.3-0.9,0.4-1.4c0.8-0.6,0.6-2.1,2-2.1C478.5,473.5,476.5,473.9,475.3,474.8z"/>
		<path class="st136" d="M129.4,144.3c-0.7,0.5-1.4,0.9-2,1.4c0.5-1.9,1.6-3.2,3.7-3.4C131.2,143.5,130.4,144,129.4,144.3z"/>
		<path class="st136" d="M126.5,146.5c-0.4,0.7-0.9,1.3-1.3,2c-0.5,0.8-0.8,1.9-2.1,1.7C123.3,148.1,124.7,147.1,126.5,146.5z"/>
		<path class="st99" d="M489.7,182.1c-0.2,0.2-0.4,0.4-0.5,0.7c-1.1-1.3-0.2-3.1-1.1-4.5c0-0.6,0.3-1,0.9-1.1
			C490.4,178.6,489.4,180.4,489.7,182.1z"/>
		<path class="st137" d="M489,177.2c-0.2,0.2-0.3,0.4-0.5,0.6c-1-0.5-0.1-1.6-0.8-2.2c0,0,0.1,0,0.1,0c0-0.7,0-1.3,0.1-2
			C489.9,174.2,488.7,175.9,489,177.2z"/>
		<path class="st138" d="M220.4,106.8c-0.1,0-0.3,0-0.4,0c-1.3-1-1.6-2.5-2.3-3.8c0.1-0.1,0.1-0.3,0.1-0.4
			C220.1,103,220.4,104.8,220.4,106.8z"/>
		<path class="st139" d="M114,45.8c0.7-0.2,1.6,0,2-0.9c1.2-0.1,2.4-0.1,3.5-0.2C117.8,45.8,116.1,46.9,114,45.8z"/>
		<path class="st140" d="M562.2,459.9c0,0.5,0.1,0.9,0.1,1.4c-0.1,1.4-0.2,2.7-0.3,4.1c-1-1.8-0.5-3.7-0.4-5.5
			c0-0.1,0.2-0.1,0.3-0.1C562,459.8,562.1,459.8,562.2,459.9z"/>
		<path class="st141" d="M160.1,494c-1.9-0.1-4,0.4-5.6-1.3c0,0-0.1-0.2-0.1-0.2c1.3-0.6,2.5,0.1,3.7,0.4
			C158.8,493.1,160.1,492.3,160.1,494L160.1,494z"/>
		<path class="st142" d="M402.3,103.2c0,0.2,0,0.5,0,0.7c-1.4-0.9-2.6-2.1-3.5-3.5c0.2-0.3,0.4-0.3,0.6,0c0.2,0,0.4,0,0.6,0
			C401.1,101.1,402.5,101.5,402.3,103.2z"/>
		<path class="st143" d="M383.2,100.4c0.2,0,0.4,0,0.6,0c-1,1.2-1.5,2.9-3.5,2.8c0-0.2,0.1-0.4,0-0.5c0.4-1.1,1.2-1.8,2.3-2.3
			C382.8,100.4,383,100.4,383.2,100.4z"/>
		<path class="st144" d="M481.8,556.4c-1.6,0.4-3.2,1-4.9,0.7C478.5,556.3,480,555,481.8,556.4z"/>
		<path class="st145" d="M456.5,135.9c-2,0.2-3.6-0.9-5.4-1.4C453.4,133.3,454.8,135.1,456.5,135.9z"/>
		<path class="st146" d="M463.4,559.2c-0.2-0.2-0.5-0.4-0.7-0.7c0-0.2,0-0.4,0-0.6c0.8-0.7,1.7-0.3,2.5-0.4c0.7,0.2,1.4,0.4,1.8,1.1
			C465.9,559.4,464.6,559.3,463.4,559.2z"/>
		<path class="st147" d="M117.2,463.4c1.4,0.8,2.6,1.7,1.6,3.6C118.3,465.8,117.8,464.6,117.2,463.4z"/>
		<path class="st148" d="M139.3,42c-1.4,0.1-2.7,0.1-4.1,0.2c-0.5,0-1-0.1-1.4-0.1c0-0.2,0-0.4,0-0.6c0.9,0,1.9-0.1,2.8-0.1
			C137.5,41.7,138.6,41.1,139.3,42z"/>
		<path class="st149" d="M464.8,42.2c-1.4-0.1-2.8-0.1-4.2-0.2c0.5-0.2,1-0.5,1.5-0.7c1.1-0.5,2.3-0.4,3.4-0.1
			c0.2,0.1,0.5,0.2,0.7,0.2c0,0.2,0,0.3,0,0.5C465.8,42.1,465.3,42.2,464.8,42.2z"/>
		<path class="st150" d="M399.5,100.4l-0.3,0c0,0-0.3,0-0.3,0c-1.1-0.1-2.1-0.5-2.9-1.4c0-0.2,0-0.3,0-0.5
			C397.1,99,398.9,98.6,399.5,100.4z"/>
		<path class="st151" d="M463.3,139.6c-1.4,0.3-2.4-0.7-3.4-1.4C461.3,137.9,462.8,137.6,463.3,139.6z"/>
		<path class="st152" d="M129.4,144.3c0.6-0.7,1.1-1.3,1.7-2c0.4-0.1,0.8-0.3,1.1-0.4C131.8,143.4,131.3,144.6,129.4,144.3z"/>
		<path class="st153" d="M123.1,150.2c0.7-0.6,1.4-1.2,2.1-1.7c0,2-1.4,2.8-2.9,3.7c0,0-0.2-0.3-0.2-0.3c0,0,0.1-0.3,0.1-0.3
			C122.5,151.1,122.8,150.7,123.1,150.2z"/>
		<path class="st154" d="M465.6,558c-1,0-1.9,0-2.9,0c1.9-1.2,3.7-1,5.7-0.2C467.5,558.6,466.6,558.3,465.6,558z"/>
		<path class="st155" d="M474.1,148.7c0.9,0.8,1.8,1.5,2.8,2.3c-0.1,0.2-0.1,0.3-0.1,0.5C475.2,151.2,474.3,150.3,474.1,148.7z"/>
		<path class="st156" d="M467.6,142.9c-0.2-0.2-0.4-0.4-0.6-0.6c-0.7-0.6-1.7-0.9-1.7-2.1c1.6-0.2,2.4,0.8,3,2.1c0,0,0,0,0,0
			C468.2,142.7,467.9,142.9,467.6,142.9z"/>
		<path class="st157" d="M445,131.7c0,0.2,0,0.4,0,0.7c-1.4-0.2-3,0.5-4.3-0.7c0.1-0.4,0.3-0.8,0.7-0.9c0.3-0.1,0.5,0,0.6,0.3
			C442.9,131.8,444,131.5,445,131.7z"/>
		<path class="st55" d="M143,41.4c-0.5-0.2-0.9-0.4-1.4-0.6c1.6,0,3.3,0,4.9,0c0.2,0.1,0.3,0.2,0.2,0.4c-0.1,0.1-0.2,0.2-0.2,0.2
			c0,0,0.1,0.2,0.1,0.2C145.4,41.5,144.2,41.5,143,41.4z"/>
		<path class="st154" d="M558.5,117.5c0.6,0.8,0.9,1.7,0.8,2.7c-0.2,0.3-0.5,1-0.5,0.6C558.7,119.7,557.5,118.7,558.5,117.5z"/>
		<path class="st158" d="M479.7,467.6c0.2-0.8,0.9-1,1.6-1.3c0.3,1-0.2,1.8-1,2.2C479.8,468.8,479.9,468,479.7,467.6z"/>
		<path class="st130" d="M402.3,103.2c-0.8-0.9-1.5-1.9-2.3-2.8c1.9,0.2,2.8,1.2,2.9,3.1C402.8,103.4,402.5,103.3,402.3,103.2z"/>
		<path class="st159" d="M130.1,479.8c1.5,0.2,2.9,0.4,2.3,2.5c-0.2-0.1-0.4-0.3-0.7-0.4C131,481.3,129.8,481,130.1,479.8z"/>
		<path class="st160" d="M561.6,469.1c-0.1,0.9-0.1,1.8-0.2,2.7c-1.1-1.3-0.6-2.8-0.4-4.2c0,0,0.2-0.1,0.3-0.1
			c0.1,0,0.2,0.1,0.3,0.2C561.6,468.2,561.6,468.7,561.6,469.1z"/>
		<path class="st161" d="M488.4,445.7c0.2,0.2,0.4,0.5,0.6,0.7c-0.1,1,0.3,2.1-0.8,2.8c-0.2,0.3-0.3,0.3-0.5,0
			C488,448,488.2,446.9,488.4,445.7z"/>
		<path class="st162" d="M130.1,479.8c0.5,0.7,1.1,1.4,1.6,2.1c-1.5-0.2-2.6-0.9-2.8-2.6C129.3,479.5,129.7,479.6,130.1,479.8z"/>
		<path class="st156" d="M124.5,474.2c0.2,0.4,0.3,0.8,0.5,1.2c-1.7-0.3-2.5-1.3-2.5-3C123.7,472.4,124,473.4,124.5,474.2z"/>
		<path class="st163" d="M119.6,155.9c0.3,1.5-0.4,2.3-1.7,2.7C118,157.4,118.2,156.3,119.6,155.9z"/>
		<path class="st164" d="M481.5,158.6c-1.7-0.6-2.2-2-2.4-3.6C480.4,155.9,480.9,157.2,481.5,158.6z"/>
		<path class="st165" d="M111,448.4c1,1,1.1,2.3,1.3,3.5C110.7,451.2,111,449.8,111,448.4z"/>
		<path class="st166" d="M487.8,449.2c0.2,0,0.3,0,0.5,0c0.1,1.3,0.2,2.7-1.2,3.4C487.3,451.5,487.5,450.4,487.8,449.2z"/>
		<path class="st167" d="M112.5,453.9c0.3,0.3,0.6,0.6,0.9,0.9c0.6,0.7,1.2,1.4,0.9,2.4c-0.1,0.1-0.2,0.2-0.3,0.4
			C112.5,456.8,112.4,455.4,112.5,453.9z"/>
		<path class="st167" d="M115.4,460.5c-1.9-0.3-1.4-1.7-1.4-2.8c0,0,0.1-0.1,0.1-0.1c1,0.1,0.8,1.2,1.4,1.6
			C115.7,459.6,115.7,460.1,115.4,460.5z"/>
		<path class="st145" d="M115.4,460.5c-0.1-0.4-0.1-0.8-0.2-1.2c-0.2-0.3-0.2-0.6,0.1-0.9c1.1,1,1.5,2.3,1.4,3.8
			C116.2,461.6,115.8,461,115.4,460.5z"/>
		<path class="st168" d="M120.3,469.6c1.2-0.1,1.3,1,1.9,1.6c0.5,0.2,0.5,0.4,0.1,0.7C120.8,471.8,120.2,471,120.3,469.6z"/>
		<path class="st169" d="M114.5,165.6c0.2-0.9,0.4-1.9,0.6-2.8c0.3,0,0.6,0,0.9,0C115.7,163.9,116.5,165.5,114.5,165.6z"/>
		<path class="st170" d="M131.6,42.7c0.5,0,1,0.1,1.5,0.1c-1.4,1.1-2.8,1-4.2,0.1C129.8,42.9,130.7,42.8,131.6,42.7z"/>
		<path class="st171" d="M122.2,471.9c0.1-0.2,0-0.5-0.1-0.7c1.3,0.6,2.4,1.3,2.3,3c-0.7-0.6-1.4-1.2-2-1.8
			C122.5,472.2,122.4,472,122.2,471.9z"/>
		<path class="st63" d="M457.7,40.8c0,0.2,0,0.4,0,0.6c-1.4,0-2.9,0.1-4.3,0.1c0,0,0.1-0.2,0.1-0.2c-0.2-0.1-0.3-0.2-0.3-0.3
			c0.1-0.1,0.1-0.2,0.2-0.2C454.9,40.8,456.3,40.8,457.7,40.8z"/>
		<path class="st172" d="M466.3,42.8c1.4,0.1,2.8,0.1,4.1,0.2C469,43.8,467.6,43.9,466.3,42.8z"/>
		<path class="st173" d="M136.9,484.7c1.2,0,2.3,0.3,2.6,1.7C138.4,486.1,137.1,486.3,136.9,484.7z"/>
		<path class="st174" d="M143.5,488.3c1.1,0.2,2.7-0.6,2.9,1.5c-0.5,0.3-0.9,0.3-1.2-0.2C144.7,489.2,144.1,488.7,143.5,488.3z"/>
		<path class="st175" d="M145.2,489.6c0.4,0.1,0.8,0.1,1.2,0.2c0.5,0.4,1,0.9,1.5,1.3C146.9,490.9,145.4,491.4,145.2,489.6z"/>
		<path class="st176" d="M111,175c0.1,1,0.1,1.9,0.2,2.9c0.2,0.5,0.3,1-0.3,1.4C110,177.7,110,176.3,111,175z"/>
		<path class="st177" d="M135.2,558c-0.9-0.1-1.8-0.2-2.7-0.2c1.4-0.9,2.8-1,4.2,0.2C136.1,558,135.6,558,135.2,558z"/>
		<path class="st178" d="M110.9,179.2c0.1-0.5,0.2-0.9,0.3-1.4c0.2,0,0.4,0,0.6,0c0,0.5,0.1,1,0.1,1.5c0.4,0.8,0.2,1.7,0.2,2.6
			c-0.2,0.3-0.5,0.4-0.9,0.1c-0.1-0.2-0.1-0.5-0.2-0.7C110.9,180.6,110.9,179.9,110.9,179.2z"/>
		<path class="st179" d="M442,131c-0.2,0-0.4,0-0.6,0.1c-0.7,0.1-1.5,0.5-2.1-0.4c0-0.1,0-0.3,0-0.4c1,0,2.1-0.3,3,0
			C443.5,130.7,442.1,130.7,442,131z"/>
		<path class="st180" d="M122.3,152.1c0.2,1.6-1,2.2-2.1,2.9c0-0.4,0-0.8,0.1-1.1C120.7,153,121,152.1,122.3,152.1L122.3,152.1z"/>
		<path class="st181" d="M142.6,135.2c-1,0.5-2.1,1.1-3.1,1.6C139.9,135.1,141.2,135.1,142.6,135.2z"/>
		<path class="st182" d="M465.3,140.2c0.4,0.9,1.6,1,1.7,2.1c-1.2-0.1-2.1-0.5-2.1-1.9C465.1,140.4,465.2,140.3,465.3,140.2z"/>
		<path class="st183" d="M464.9,483.7c0.1-1.4,1-1.9,2.2-1.8c0,1.2-1,1.6-1.9,2C465.2,483.9,465.1,483.8,464.9,483.7z"/>
		<path class="st184" d="M120.4,44.4c0.7-0.1,1.3-0.1,2-0.2c0.2,0.2,1.2,0.2,0.5,0.6C122.2,45.2,121.1,45.2,120.4,44.4z"/>
		<path class="st185" d="M456.9,489c0.8-0.8,1.7-1.4,2.9-1.4C459.3,488.9,458.2,489.1,456.9,489z"/>
		<path class="st186" d="M122.3,152.1c-0.7,0.6-1.3,1.2-2,1.8c-0.1-1.4,0.4-2.3,1.9-2.4C122.3,151.7,122.3,151.9,122.3,152.1z"/>
		<path class="st187" d="M130.2,557.2c-0.9,0-1.8-0.1-2.7-0.1C128.4,556.4,129.4,555.8,130.2,557.2z"/>
		<path class="st188" d="M382.6,100.4c-0.8,0.8-1.5,1.5-2.3,2.3C380.3,101.1,381.1,100.4,382.6,100.4z"/>
		<path class="st189" d="M479,153.7c-0.9-0.5-1.5-1.3-1.9-2.2C478.5,151.7,479.1,152.4,479,153.7z"/>
		<path class="st190" d="M465.6,558c0.9-0.1,1.8-0.1,2.7-0.2c0.2,0.1,0.5,0.1,0.7,0.2c0,0.2,0,0.3,0,0.5c-0.7,0-1.4,0.1-2.1,0.1
			C466.5,558.4,466.1,558.2,465.6,558z"/>
		<path class="st191" d="M561.6,132.3c0,0.2-0.1,0.5-0.1,0.7c-1-1.1-1-2.3,0-3.4C561.4,130.5,561.5,131.4,561.6,132.3z"/>
		<path class="st137" d="M158.6,130.8c-0.9,0.1-1.8,0.2-2.6,0.3C156.7,129.6,157.6,130,158.6,130.8z"/>
		<path class="st192" d="M465.3,484c0.6-0.7,1.3-1.3,1.9-2c0.2,0,0.3,0.1,0.5,0.1C467.5,483.4,466.7,484.1,465.3,484z"/>
		<path class="st193" d="M453.5,40.8c0,0.2,0,0.3,0,0.5c-33.6,0-67.2,0.1-100.8,0.1c-67.8,0-135.6,0-203.3,0c-0.9,0-1.9-0.1-2.8-0.1
			c0-0.2,0-0.3,0-0.5c29.4,0,58.7-0.1,88.1-0.1c71.5,0,143,0,214.6,0C450.6,40.7,452,40.8,453.5,40.8z"/>
		<path class="st194" d="M465.5,41.3c-1.1,0-2.3,0-3.4,0.1c-0.1-0.2-0.3-0.4-0.4-0.6C463,40.8,464.4,40.3,465.5,41.3z"/>
		<path class="st195" d="M456.4,558.7c0,0.4,0,0.8-0.1,1.2c-0.5,0-1,0-1.5,0c-1.3-0.4-2.6-0.2-3.9-0.2c-99.5,0-198.9,0-298.4,0
			c-1.3,0-2.6-0.3-3.9,0.3c-0.3,0-0.5,0-0.8,0c-0.5-0.4-0.9-0.8-1.4-1.3c32.4,0,64.8-0.1,97.3-0.1c69.8,0,139.6,0,209.4,0
			C454.3,558.6,455.4,558.7,456.4,558.7z"/>
		<path class="st196" d="M148.7,559.9c1.1-1.1,2.5-0.6,3.7-0.6c99.2,0,198.4,0,297.6,0c1.6,0,3.3-0.6,4.8,0.6c-27,0-54,0.1-81,0.1
			c-73.9,0-147.7,0-221.6,0C151.1,560,149.9,560,148.7,559.9z"/>
		<path class="st194" d="M478.4,558.6c-0.7,1-1.5,1.8-2.1,0.9c-0.8-1.2,0.5-0.8,1-0.9C477.6,558.5,478,558.6,478.4,558.6z"/>
		<path class="st194" d="M138.8,559.5c1.3-0.1,2.5-0.2,3.7,0.5C141.2,559.9,139.9,560.4,138.8,559.5z"/>
		<path class="st194" d="M212.6,186.9c0.7-0.4,1.5-0.9,2.2-1.3c0.4-0.9,1.2-1.4,1.8-2.2c2-2.9,3.7-5.7,3.3-9.7
			c-0.5-6-0.1-12-0.1-18.1c0-1.5,0.1-2.9,1.8-3.5c1.4-0.4,2.8-0.3,4.2-0.3c48.8,0,97.5,0,146.3,0c1.5,0,3.1-0.2,4.6,0.3
			c0.4,0.2,0.8,0.5,1.1,0.8c1,1.5,0.7,3.2,0.7,4.8c0,6,0,12,0,18c-0.4,2.8,1.6,4.9,2.5,7.2c0,0.7,0.4,1,1,1.2
			c4.5,3.2,9.4,3.9,14.6,2.5c1.3-0.2,2.1-1.4,3.3-1.9c0.8-0.8,1.6-1.6,2.4-2.4c0.7-1.5,1.7-2.8,1.8-4.5c0.6-6.6,0-13.2,0.2-19.8
			c0.1-1.7-0.4-3.6,0.4-5.2c1-1.3,2.4-1.3,3.8-1.3c5.3,0,10.6-0.1,15.9,0.1c4,0.8,8.1,0.1,12.1,0.5c1.3,0.7,2.7,0.5,4.1,0.5
			c2.1,0.7,4.3,0.8,6.2,2c1.9,0.4,3.7,1,5,2.6c1.1,0.7,1.9,2,3.4,2.1c2.4,1.5,4.4,3.4,5.8,5.9c-0.1,0.2,0,0.4,0.2,0.5
			c1,0.7,1.8,1.6,1.9,2.8c0.9,1.9,1.9,3.9,2.8,5.8c0.9,0.4,0.3,1.4,0.8,2c0.1,0.3,0.1,0.5,0.2,0.8c2,4,2,8.4,2.2,12.6
			c0.3,7.3,0.1,14.6,0.1,21.9c0,1.4,0,2.8-1,4c-1.4,1-2.9,0.8-4.5,0.8c-109.2,0-218.4,0-327.7,0c-1.3,0-2.6,0.1-3.9-0.3
			c-0.4-0.2-0.8-0.4-1.1-0.8c-0.8-1.3-0.6-2.7-0.6-4.1c0-8.5,0-17,0-25.5c1-5.6,1.8-11.2,4.7-16.2c1.1-0.7,1-2.4,2.3-2.9l-0.1,0.1
			c0.2-1.3,1.4-2,2-3.1l0,0.1c0.9-1.6,2-2.9,3.7-3.6c0.2,0.1,0.4,0,0.5-0.2c0.8-1.1,1.7-2,2.8-2.7c0.5-0.1,1-0.2,1.5-0.3
			c1.5-1.9,3.8-2.4,6-3.1c4.8-1.4,9.6-2.3,14.6-2.3c7,0.1,14,0,20.9,0c1.5,0,3.1-0.2,4.1,1.4c1.1,5.8,0.3,11.7,0.5,17.6
			c0.1,3.7-0.4,7.5,1.3,11l-0.1-0.1c1.3,1.3,2.8,2.5,3.8,4.2c0.5,0.8,1.4,1,2.2,1.3C205.1,187.4,208.8,187.6,212.6,186.9z"/>
		<path class="st197" d="M468.5,436.4c0-29-0.1-58-0.1-87c0-37.5,0-75.1,0-112.6c-0.2-0.1-0.3-0.3-0.2-0.4c0.1-0.2,0.2-0.2,0.2-0.2
			c0.4,0.2,0.9,0.4,1.3,0.6c0.8,0.8,0.5,1.8,0.5,2.7c0,65.3,0,130.6,0,195.9c0,0.5,0,0.9-0.1,1.4
			C469.3,437.6,468.9,437.2,468.5,436.4z"/>
		<path class="st198" d="M468.4,216.2c0,0.3,0,0.5,0,0.8c-1.2,0.6-2.6,0.3-3.9,0.3c-67.6,0-135.2,0-202.8,0c-42.1,0-84.1,0-126.2,0
			c-1.3,0-2.6,0.3-3.8-0.3c-0.6-0.3-1.2-0.8-1.3-1.5c0.2-0.2,0.4-0.3,0.6-0.3c0.3,0,0.5,0.2,0.6,0.4l0,0c1.4,0.6,2.8,0.3,4.2,0.3
			c109.2,0,218.4,0,327.7,0c1.4,0,2.8,0,4.3,0C468,216,468.2,216.1,468.4,216.2z"/>
		<path class="st199" d="M468.4,236.2c0,0.2,0,0.4,0,0.7c-26.9,0-53.8-0.1-80.6-0.1c-85.4,0-170.7,0-256.1,0
			c-0.2-0.1-0.3-0.3-0.2-0.4c0.1-0.1,0.1-0.2,0.2-0.2c0.3-0.1,0.5-0.1,0.8-0.2c1.3-0.5,2.6-0.3,3.9-0.3c108.4,0,216.9,0,325.3,0
			c1.3,0,2.6-0.2,3.9,0.2C466.4,236,467.4,236.1,468.4,236.2z"/>
		<path class="st200" d="M465.5,236c-39.4,0-78.8,0.1-118.2,0.1c-70.5,0-141.1,0-211.6,0c-1.1,0-2.1,0-3.2-0.1
			c1.1-1.1,2.5-0.6,3.7-0.6c108.3,0,216.6,0,324.9,0C462.5,235.4,464.1,234.8,465.5,236z"/>
		<path class="st199" d="M151.6,469.8c7.5,3,15.4,3.6,23.5,3.6c84.4-0.1,168.7,0,253.1,0c2.2,0,4.5,0,6.7,0c2.1-0.4,2.2-0.3,1.9,1
			c-1.2,0.1-2.4,0.1-3.5,0.1c-89,0-178.1,0-267.1,0c-3.3,0-6.5-0.6-9.6-1.8C155.1,471.2,152.3,472.2,151.6,469.8z"/>
		<path class="st201" d="M156.5,472.6c6,1.6,12.1,1.4,18.3,1.4c86.4,0,172.7,0,259.1,0c1.1,0,2.1-0.1,3.2-0.1
			c0.3-0.2,0.6-0.2,0.8,0.1c-1,1.2-2.4,0.7-3.7,0.7c-89.7,0-179.4,0-269.1,0C162.1,474.8,159.1,474.7,156.5,472.6z"/>
		<path class="st202" d="M168.6,494.1c-0.7-0.1-1.4-0.2-2.1-0.2c-0.1-0.6,0-1,0.7-0.6c91.6-0.4,183.3,0.9,274.9-0.7
			c0,0.2,0,0.4,0,0.6c-3.8,0.9-7.7,0.8-11.6,0.8c-86.2,0-172.5,0-258.7,0C170.7,494,169.6,494,168.6,494.1z"/>
		<path class="st203" d="M487.6,175.6c1,0.4,0.6,1.5,0.8,2.2c0.2,1.7,0.5,3.3,0.7,5c-0.1,0.2-0.1,0.4,0,0.7c0.4,1.1,0.2,2.3,0.2,3.5
			c0,82,0,164,0,246c0,1.2,0.2,2.4-0.2,3.5c-0.1,0.2-0.1,0.4,0,0.7c-0.1,1.4-0.2,2.8-0.3,4.3c-0.2,0-0.4,0-0.6,0
			c0-0.7-0.1-1.5-0.1-2.2c-0.5-1.3-0.3-2.6-0.3-3.9c0-83.4,0-166.7,0-250.1c0-1.3-0.2-2.6,0.3-3.9
			C487.8,179.5,487.4,177.6,487.6,175.6z"/>
		<path class="st204" d="M111.7,182c0-0.9,0.1-1.8,0.1-2.8c1.1,1.1,0.6,2.5,0.6,3.7c0,85.8,0,171.6,0,257.5c0,1.3,0.4,2.6-0.6,3.7
			c-0.9-1.7-0.2-3.6-0.4-5.4c0-84.2,0-168.4,0-252.6C111.4,184.8,111.1,183.4,111.7,182z"/>
		<path class="st205" d="M488.2,181.4c0,41.4,0.1,82.9,0.1,124.3c0,44.5,0,89-0.1,133.5c-1.1-1.1-0.6-2.5-0.6-3.7
			c0-83.4,0-166.9,0-250.3C487.6,183.9,487.1,182.5,488.2,181.4z"/>
		<path class="st206" d="M469.2,437.2c1-1.1,0.6-2.5,0.6-3.8c0-64.6,0-129.3,0-193.9c0-0.9-0.1-1.9-0.2-2.8c1.4,0.9,0.8,2.4,0.8,3.6
			c0,65.3,0,130.6,0,195.8c0,3.7-0.4,7.5-2.1,10.9C467.5,443.7,469,440.5,469.2,437.2z"/>
		<path class="st207" d="M261.6,217c26.7,0,53.4-0.1,80.1-0.1c42.2,0,84.4,0,126.6,0c-0.8,0.9-2,0.7-3,0.7c-67.9,0-135.8,0-203.8,0
			c-0.2-0.1-0.3-0.2-0.2-0.4C261.5,217.1,261.6,217,261.6,217z"/>
		<path class="st208" d="M129.5,439.9c0,0.1,0,0.3-0.1,0.3c-0.1,0.1-0.3,0.2-0.4,0.3c-0.1-0.9-0.2-1.8-0.2-2.7
			c0-65.6,0-131.1,0-196.7c0-1.2-0.5-2.6,0.7-3.7c1.2,1.3,0.7,2.9,0.7,4.4c0,58.9,0,117.8,0,176.7c0,5.7,0.5,11.3,0.3,17
			C130.5,437.1,130.7,438.7,129.5,439.9z"/>
		<path class="st209" d="M129.5,439.9c0-67.5,0-135,0-202.5c0.3-0.2,0.5-0.5,0.8-0.7c0.8,1.6,0.3,3.3,0.3,4.9
			c0,59.7,0,119.3,0.1,179c0,5.3,0.3,10.6,0.3,16c-0.1,1.1,0.2,2.4-0.7,3.3C130,440,129.7,440,129.5,439.9z"/>
		<path class="st199" d="M130.3,437.1c0-30.1-0.1-60.1-0.1-90.2c0-36.7,0-73.4,0-110.1c0.5-0.2,0.9-0.4,1.4-0.6c0,0.2,0,0.4,0,0.6
			c-0.8,1.1-0.3,2.3-0.3,3.4c0,59.6,0,119.2-0.1,178.9c0,1.4-0.1,2.8-0.2,4.2c0.6,4.2,0.1,8.5,0.2,12.7
			C131.3,436.6,131.1,437.1,130.3,437.1z"/>
		<path class="st210" d="M220.4,151.6c0-0.2,0-0.5,0-0.7c1-0.7,2.1-0.4,3.1-0.4c34.4,0,68.8,0,103.2,0c1,0,2.1-0.2,3.1,0.3
			c15.6,0,31.2,0,46.8,0c0.2,0,0.5,0,0.7,0.1c0.1,0.1,0.1,0.4,0.1,0.6c-1,0.9-2.2,0.7-3.4,0.7c-50.4,0-100.9,0-151.3,0
			c-0.4,0-0.7,0-1.1-0.1C221.2,152,220.8,151.9,220.4,151.6z"/>
		<path class="st211" d="M220.4,130.1c0.2,0,0.5,0,0.7-0.1c25.2,0,50.3,0.1,75.5,0.1c26.9,0,53.9,0,80.8,0c0.2,0.2,0.3,0.3,0.2,0.4
			c-0.1,0.1-0.2,0.2-0.2,0.2c-51.3,0-102.7,0-154,0C222.3,130.9,221.2,131.2,220.4,130.1z"/>
		<path class="st199" d="M221.2,151.6c39,0,78-0.1,117-0.1c13.1,0,26.2,0,39.3,0c0,0.2,0,0.5,0,0.7c-0.2,0.1-0.4,0.2-0.6,0.3
			c-51.7,0.1-103.4,0-155,0C221.2,152.5,221,152.2,221.2,151.6z"/>
		<path class="st212" d="M261.6,217c0,0.2,0,0.4,0,0.5c-42.3,0-84.6,0-127,0c-1,0-2.2,0.3-3-0.6c42.1,0,84.3,0,126.4,0
			C259.3,216.9,260.5,217,261.6,217z"/>
		<path class="st213" d="M329.8,150.8c-36.5,0-72.9,0-109.4,0.1c1-1.2,2.4-0.7,3.7-0.7c34,0,68,0,102,0
			C327.4,150.1,328.8,149.6,329.8,150.8z"/>
		<path class="st214" d="M130.7,215.5c-0.1,0-0.3,0-0.4,0c0,0-0.2,0-0.2,0c-0.7-0.9-0.7-2-0.7-3c0-8.6,0-17.3,0-25.9
			c0-1.1-0.1-2.1,0.7-3c1.4-4,1.6-8.4,3.5-12.2c0.5-1.1,1-2,2.2-2.5c0.2,0.1,0.3,0.2,0.2,0.4c-0.1,0.1-0.1,0.2-0.2,0.2
			c-2.4,4.9-4.2,10.1-4.4,15.6c-0.6,8.9-0.1,17.9-0.3,26.9C131.2,213,131.8,214.3,130.7,215.5z"/>
		<path class="st215" d="M193.4,152.9c-0.8-0.5-1.8-0.5-2.7-0.5c-10.1,0.1-20.2-0.4-30.3,0.4c-2.6,0.2-4.9,1.4-7.5,1.5
			c-0.8,0.3-0.9-0.1-0.7-0.7c2.6-0.7,5.2-1.4,7.8-2.1c0.9-0.8,2-0.4,3.1-0.4c9.1,0,18.2,0,27.2,0c1,0,2.1-0.3,3.1,0.4
			c0.2,0.5,0.4,0.9,0.6,1.4C193.8,153.2,193.6,153.2,193.4,152.9z"/>
		<path class="st216" d="M377.4,130.8c0-0.2,0-0.4,0-0.6c0-7,0.1-14.1,0.1-21.1c0.9-0.8,0.1-2.4,1.5-2.9c0.8,0.7,0,1.4-0.1,2.1
			c0.3,7.3,0.6,14.6-0.1,22C378.4,130.4,377.9,130.6,377.4,130.8z"/>
		<path class="st217" d="M221.2,151.6c0,0.2,0,0.4,0,0.6c0.4,0.3,0.4,0.5-0.2,0.6c-1.1,4-0.3,8.2-0.5,12.2c-0.1,3.2-0.1,6.4,0,9.6
			c0.1,4.7-1.8,8.4-5.7,11.1c0.3-2.3,2.4-3.6,3.3-5.6c0.7-1.5,1.4-2.9,1.5-4.5c-0.4-7.5-0.4-15,0-22.5c0.3-0.5,0.5-1,0.8-1.4
			C220.7,151.6,220.9,151.6,221.2,151.6z"/>
		<path class="st218" d="M468.3,215.4c0-10,0.1-20,0-30c0-2.8-0.8-5.5-1.2-8.3c1.7,0.6,0.8,2.6,2,3.5c0.6,1.1,0.4,2.3,0.1,3.4
			c0,0.7,0,1.4-0.1,2.1c0.2,0.3,0.4,0.6,0.5,0.9c0.3,9.1,0.3,18.3,0,27.4c0,0.4-0.3,0.6-0.5,0.9c-0.2,0.2-0.5,0.4-0.7,0.7
			c0,0,0,0,0,0C468,215.9,468,215.7,468.3,215.4z"/>
		<path class="st219" d="M380.9,183c-1.9-1.5-2.3-3.9-3.3-5.9c0.3-8.1,0.4-16.1-0.1-24.2l-0.1,0.1c-0.2-0.2-0.3-0.3-0.2-0.5
			c0.1-0.2,0.2-0.2,0.2-0.2c0,0,0,0,0,0c0.5,0.2,1,0.5,1.4,0.7c0.6,8,0.5,16.1,0,24.1C379.6,179,380.3,181,380.9,183z"/>
		<path class="st220" d="M129.5,215.5c-0.4,0.2-0.7,0-0.7-0.4c0-10.5,0-21.1,0-31.6c0-0.2,0.1-0.5,0.2-0.6c0.5-0.1,0.4,0.3,0.5,0.6
			c0.7,7.4,0.2,14.8,0.3,22.1C129.8,208.9,130.3,212.2,129.5,215.5z"/>
		<path class="st221" d="M405.2,151.6c0.9-1.2,2.1-0.8,3.3-0.8c9,0,18.1-0.1,27.1,0.1c0.6,0,2.7-1.3,2.2,1.2
			c-0.4,0.1-0.9,0.2-1.3,0.2C426,152.1,415.6,151.9,405.2,151.6z"/>
		<path class="st198" d="M130.3,437.1c1.4-4.5,0-9.2,0.7-13.8c0.2,4,0.4,8,0.4,11.9c0.1,5.3,0.7,10.4,2.3,15.4
			c0.4,0.7,0,0.8-0.6,0.7c-1.5-3.6-1.9-7.6-3-11.3C130.2,439,130.3,438,130.3,437.1z"/>
		<path class="st222" d="M193.4,151.5c-11.1,0-22.3,0-33.4,0.1c0.6-1,1.6-0.8,2.6-0.8c9.4,0,18.8,0,28.3,0
			C191.8,150.8,192.8,150.6,193.4,151.5z"/>
		<path class="st217" d="M405.2,151.6c9.9,0,19.8-0.1,29.8-0.1c0.8,0,1.7-0.2,2.2,0.7c-0.2,0.1-0.4,0.2-0.6,0.3
			c-3.9,0-7.8,0.3-11.7-0.2c-5.3,0-10.6,0.1-15.9,0.1c-1.3,0-2.6-0.2-3.8,0.5c-0.3,0.2-0.5,0.3-0.8,0.1c-0.2-0.3-0.1-0.6,0.2-0.8
			C404.7,152,405,151.8,405.2,151.6z"/>
		<path class="st223" d="M129.5,215.5c0-10.7,0-21.3,0-32c0.2,0,0.5,0,0.7,0c0,10.7,0,21.3,0,32c0,0-0.3,0-0.3,0L129.5,215.5z"/>
		<path class="st224" d="M469.8,186.4c0-0.1,0-0.3,0.1-0.3c0.1-0.1,0.3-0.2,0.4-0.3c0.1,0.4,0.2,0.9,0.2,1.3c0,8.6,0,17.2,0,25.9
			c0,0.9,0.2,1.9-0.8,2.6C469.3,205.7,469.2,196.1,469.8,186.4z"/>
		<path class="st219" d="M193.4,152.9c0.2,0,0.4,0,0.6,0c0,0,0.2,0,0.2,0c0.5,7.5,0.4,15.1,0,22.6c0,2.1,1.6,3.8,1.2,6
			c-1.6-1.9-2-4.1-2-6.5C193.4,167.7,193.4,160.3,193.4,152.9z"/>
		<path class="st225" d="M469.8,186.4c0,9.7,0,19.4,0,29.1c-0.2,0-0.4,0-0.6,0c0-9.8,0-19.5,0-29.3
			C469.4,186.3,469.6,186.3,469.8,186.4z"/>
		<path class="st226" d="M165,130.9c0-0.2,0-0.4,0-0.6c9.2-0.1,18.4-0.2,27.7-0.2c0.3,0,0.5,0,0.8,0.1c-0.9,1.1-2.2,0.7-3.3,0.7
			C181.8,130.9,173.4,130.9,165,130.9z"/>
		<path class="st219" d="M404.5,152.9c0.2,0,0.4,0,0.7,0c0,6.9-0.1,13.9,0,20.8c0,1.9-0.2,3.7-0.9,5.5c-0.2,0.3-0.3,0.3-0.5,0
			c0.2-1.2,0.4-2.4,0.5-3.7C404.1,168,403.7,160.5,404.5,152.9z"/>
		<path class="st226" d="M405.1,130.1c0.2,0,0.5,0,0.7-0.1c8,0.1,16.1,0.2,24.1,0.3c0.2,0.1,0.3,0.3,0.2,0.4
			c-0.1,0.1-0.2,0.2-0.2,0.2c-7.1,0-14.2,0-21.2,0C407.5,130.9,406.2,131.4,405.1,130.1z"/>
		<path class="st227" d="M378.9,177c0-8,0-16.1,0-24.1c1,0.8,0.7,2,0.7,3c0,6.2,0,12.3,0,18.5C379.6,175.3,379.8,176.3,378.9,177z"
			/>
		<path class="st223" d="M404.5,152.9c-0.1,7.5-0.1,15.1-0.2,22.6c-1.3-5.8-0.3-11.7-0.5-17.6c-0.1-1.9-0.8-4,0.7-5.8
			C404.5,152.5,404.5,152.7,404.5,152.9z"/>
		<path class="st228" d="M194.2,175.6c0-7.5,0-15.1,0-22.6c1.3,3.3,0.6,6.7,0.6,10.1C194.7,167.2,195.6,171.5,194.2,175.6z"/>
		<path class="st229" d="M397.3,186.9c-5.7,2.4-10.8,1.8-15.3-2.6c2.3-0.1,3.7,2.5,6.1,2.1c2,0.9,4.2-0.1,6.2,0.6c1-0.2,2-0.4,3-0.5
			c0.2,0.1,0.3,0.2,0.2,0.3C397.5,186.8,397.4,186.9,397.3,186.9z"/>
		<path class="st230" d="M219.7,153c0,7.5,0,15,0,22.6c-1.3-5.2-0.4-10.5-0.5-15.7C219,157.6,218.3,155.2,219.7,153z"/>
		<path class="st204" d="M378.8,130.2c0-7.3,0.1-14.6,0.1-22c1.4,4.8,0.4,9.7,0.5,14.5C379.6,125.2,380.4,127.9,378.8,130.2z"/>
		<path class="st231" d="M193.3,109.6c0.1-0.5,0.2-0.9,0.3-1.4l0.2-0.3l0.3,0.2c0,0.5,0.1,1,0.1,1.5c0.5,6.6,0.5,13.2,0,19.8
			c-0.3,0.3-0.5,0.5-0.8,0.8C193.4,123.3,193.3,116.5,193.3,109.6z"/>
		<path class="st232" d="M220.3,108.9c0.1,7.1,0.1,14.2,0.2,21.3c-0.3-0.2-0.5-0.5-0.8-0.8c-0.5-6.6-0.5-13.2,0-19.8
			c0-0.3,0.1-0.5,0.1-0.8C220,108.5,220.1,108.6,220.3,108.9z"/>
		<path class="st233" d="M404.5,110.3c0.2,0,0.4,0,0.6,0c0.1,6.6,0.1,13.3,0.2,19.9c-1.4-1.4-0.7-3.1-0.7-4.7
			C404.4,120.4,404.5,115.4,404.5,110.3z"/>
		<path class="st234" d="M219.6,109.7c0,6.6,0,13.2,0,19.8c-1.4-2.4-0.6-5.1-0.6-7.6C219.2,117.8,218.3,113.7,219.6,109.7z"/>
		<path class="st204" d="M194.2,129.4c0-6.6,0-13.2,0-19.8c1.4,5.4,0.3,11,0.6,16.5C194.9,127.2,195.2,128.5,194.2,129.4z"/>
		<path class="st235" d="M437.8,474c-0.3,0-0.5-0.1-0.8-0.1c-0.6-0.7-1.4-0.5-2.2-0.6c4.1-1,8.3-1.5,12.2-3.3c0,0.2,0,0.3,0,0.5
			c0.5,1.4-1,0.9-1.4,1.4c-1.3,0.8-2.9,1-4.4,1.4C440.1,473.6,439,473.8,437.8,474z"/>
		<path class="st236" d="M212.6,186.9c-3.8,1.8-7.6,1.6-11.3,0c1-1.3,2-0.1,3,0c1.8-0.3,3.6-0.3,5.3,0
			C210.6,186.8,211.6,185.6,212.6,186.9z"/>
		<path class="st237" d="M167.2,493.2c-0.2,0.2-0.5,0.4-0.7,0.6c-2.1,0-4.3,0.1-6.4,0.1c-0.4-1.1-1.4-0.6-2.1-0.9
			c-0.1-0.1-0.2-0.3-0.1-0.4c0.1-0.1,0.1-0.2,0.2-0.2C161,492.9,164.2,491.8,167.2,493.2z"/>
		<path class="st238" d="M469.2,437.2c0.3,3.3-0.7,6.5-0.8,9.8c-0.2,0.4-0.5,0.9-0.7,1.3c-0.6,0.1-1.1,0.1-0.7-0.8
			c0.7-3.7,1.7-7.4,1.6-11.2C468.7,436.7,469,437,469.2,437.2z"/>
		<path class="st239" d="M430,130.9c0-0.2,0-0.4,0-0.6c1,0,1.9,0,2.9,0c1.2,0.6,2.5-0.1,3.6,0.5c0.9-0.1,1.8-0.1,2.8-0.2
			c0.7,0.1,1.4,0.2,2.1,0.4c-0.2,0.2-0.5,0.4-0.7,0.6C437.1,131.5,433.5,132.1,430,130.9z"/>
		<path class="st240" d="M466.9,447.6c0.2,0.3,0.5,0.5,0.7,0.8c-1.2,1.9,0,5-3.1,5.9C464.6,451.8,466,449.8,466.9,447.6z"/>
		<path class="st217" d="M138.8,459.6c2.1,2,4.2,4.1,6.3,6.1l-0.1,0.2C141.9,464.9,139.9,462.7,138.8,459.6z"/>
		<path class="st241" d="M461.2,165.2c-1.9-2-3.9-3.9-5.8-5.9C458.3,160.4,460.4,162.2,461.2,165.2z"/>
		<path class="st242" d="M447.1,154.9c-2-0.6-3.9-1.2-5.9-1.8c0.1-0.4,0.5-0.5,0.8-0.7c1.6,0.9,3.9,0.2,5,2.3L447.1,154.9z"/>
		<path class="st243" d="M220.3,108.9l-0.3,0c0,0-0.3,0-0.3,0c-0.7-2-1.9-3.8-2.1-6c1.3,0.9,1.7,2.5,2.3,3.8
			C220.1,107.5,220.2,108.2,220.3,108.9z"/>
		<path class="st244" d="M199.1,185.7c-1.5-1.2-3.1-2.3-3.8-4.2C197,182.5,198.8,183.4,199.1,185.7z"/>
		<path class="st245" d="M194.1,108.2c-0.2,0-0.3,0-0.5,0c0.4-2,0.8-3.9,2.7-5.1C195.9,104.9,195.1,106.6,194.1,108.2z"/>
		<path class="st217" d="M447.1,154.9c0,0,0-0.3,0-0.3c2.1,0,4.1,0.2,4.9,2.7C450.4,156.4,448.7,155.6,447.1,154.9z"/>
		<path class="st246" d="M152.3,153.7c0.2,0.2,0.5,0.5,0.7,0.7c-1.7,0.9-3.3,1.7-5,2.6C148.4,154.6,150.8,154.7,152.3,153.7z"/>
		<path class="st247" d="M133.2,451.3c0.2-0.2,0.4-0.5,0.6-0.7c1,1.6,1.9,3.1,2.2,5C134.2,454.7,133.9,452.9,133.2,451.3z"/>
		<path class="st248" d="M143.3,160.1c-1.2,1.2-2.5,2.4-3.7,3.6C139.8,161.6,141.1,160.4,143.3,160.1z"/>
		<path class="st249" d="M394.3,186.9c-2.1-0.1-4.3,0.7-6.2-0.6C390.2,186.6,392.4,185.7,394.3,186.9z"/>
		<path class="st250" d="M115.3,458.4c0,0.3-0.1,0.6-0.1,0.9c-0.4-0.6-0.7-1.2-1.1-1.7c-0.2-0.9-0.5-1.8-0.7-2.7c0.2,0,0.4,0,0.5,0
			C115,455.8,115.3,457,115.3,458.4z"/>
		<path class="st251" d="M111.7,439.3c0.1,1.6,0.1,3.3,0.2,4.9c0,0.5-0.1,1-0.1,1.4c-0.2,0-0.3,0-0.5,0c-0.1-1.1-0.2-2.3-0.3-3.4
			c0.1-1,0.1-2,0.2-2.9C111.3,438.9,111.5,438.9,111.7,439.3z"/>
		<path class="st252" d="M209.6,186.9c-1.8,0-3.6,0-5.3,0C206.1,186,207.8,186,209.6,186.9z"/>
		<path class="st153" d="M467.6,142.9c0.2-0.2,0.5-0.3,0.7-0.5c0.5,1.3,2.5,1.6,2.3,3.4C469.3,145.1,468.3,144.2,467.6,142.9z"/>
		<path class="st253" d="M402.3,182.6c-0.3,1.1-1.1,1.7-2,2.3c-0.3,0.2-0.5,0.2-0.7,0c0.6-1.1,1.3-2.2,2.7-2.5L402.3,182.6z"/>
		<path class="st254" d="M402.3,182.6c0,0-0.1-0.3-0.1-0.3c0.2-1.2,0.5-2.4,1.6-3.2c0.2,0,0.3,0,0.5,0
			C403.9,180.5,403.4,181.8,402.3,182.6z"/>
		<path class="st255" d="M135.9,455.9c1.4,0.6,2,2,2.7,3.2C136.6,459,136.5,457.2,135.9,455.9z"/>
		<path class="st235" d="M461.1,459.1c0.3-1.3,1-2.3,2.2-2.9C463.8,458.1,462.1,458.4,461.1,459.1z"/>
		<path class="st256" d="M145.1,466l0.1-0.2c1.2,0.6,2.5,1.1,2.9,2.6C146.5,468.2,145.6,467.3,145.1,466z"/>
		<path class="st257" d="M463.4,168.6c-0.6-0.9-1.3-1.9-1.9-2.8C463.1,166,463.8,166.9,463.4,168.6z"/>
		<path class="st258" d="M451.4,467.8c0.7-0.5,1.4-0.9,2.1-1.4c0.3,0.6,0.7,1.2-0.1,1.7C452.6,468.5,451.9,468.6,451.4,467.8z"/>
		<path class="st259" d="M458.6,461.9c0.5-1.3,1.6-2.1,2.5-3C461.3,460.7,460.3,461.7,458.6,461.9z"/>
		<path class="st260" d="M157.9,492.5c0,0.2,0,0.4,0,0.6c-1.2-0.2-2.4-0.4-3.5-0.6C155.6,491.5,156.8,491.5,157.9,492.5z"/>
		<path class="st261" d="M204.1,98.2c1.7-1.1,3.4-1.2,5,0C207.4,98.2,205.7,98.2,204.1,98.2z"/>
		<path class="st262" d="M441.3,473.3c1.3-0.9,2.8-1.3,4.4-1.4C444.5,473.4,442.9,473.4,441.3,473.3z"/>
		<path class="st263" d="M453.8,466.2c1-0.9,1.8-2.1,3.2-2.6C456.6,465.3,455.6,466.2,453.8,466.2z"/>
		<path class="st264" d="M146.5,157.2c-0.5,1.3-1.6,2.1-2.8,2.7C143.9,158.2,145,157.5,146.5,157.2z"/>
		<path class="st217" d="M442,152.3c-0.3,0.2-0.5,0.5-0.8,0.7c-1.4-0.1-2.7-0.1-4.1-0.2c-0.2-0.1-0.3-0.3-0.2-0.4
			c0.1-0.1,0.2-0.2,0.2-0.2c0,0,0,0,0,0c0.2,0,0.4-0.1,0.6-0.2C439.2,152.1,440.6,152.2,442,152.3z"/>
		<path class="st265" d="M139.5,163.6c-0.3,1.3-1.1,2.2-2,3.1C137,164.9,138.5,164.4,139.5,163.6z"/>
		<path class="st266" d="M469.2,184.1c0-1.1-0.1-2.3-0.1-3.4C470.4,181.8,469.9,182.9,469.2,184.1z"/>
		<path class="st267" d="M399.5,184.9c0.2,0,0.5,0,0.7,0c-0.8,0.9-1.8,1.5-2.9,1.9c0-0.2,0-0.3,0-0.5
			C397.7,185.3,398.5,184.9,399.5,184.9z"/>
		<path class="st244" d="M447.1,470.4c0-0.2,0-0.3,0-0.5c0.7-0.3,1.4-0.6,2.1-0.9C449.4,470.9,448,470.4,447.1,470.4z"/>
		<path class="st268" d="M135.9,169.3c-0.1-0.2-0.1-0.4,0-0.6c0-1.1,0.4-2.1,1.7-2.1C137,167.5,136.5,168.4,135.9,169.3z"/>
		<path class="st269" d="M467,176.4c-1.1-0.3-0.6-1.3-0.8-2C468.2,174.3,466.9,175.6,467,176.4z"/>
		<path class="st270" d="M111.7,439.3l-0.3,0c0,0-0.3,0-0.3,0c0-33.7-0.1-67.4-0.1-101.1c0-49.8,0-99.6,0-149.4
			c0-2.2,0.1-4.5,0.1-6.7c0.2,0,0.4,0,0.5,0c0,50.6,0.1,101.2,0.1,151.9C111.7,369,111.7,404.1,111.7,439.3z"/>
		<path class="st271" d="M489.1,436.4c0-30.5-0.1-61-0.1-91.5c0-52.2,0-104.3,0-156.5c0-1.7,0.1-3.3,0.1-5c1,1.2,0.6,2.7,0.6,4.1
			c0,81.7,0,163.4,0,245.2C489.7,434,490.1,435.3,489.1,436.4z"/>
		<path class="st82" d="M436.5,130.9c-1.2-0.1-2.5,0.4-3.6-0.5C434.1,130.3,435.4,129.8,436.5,130.9z"/>
		<path class="st272" d="M357.6,394c0,0.2,0,0.3,0,0.5c-0.5,0-1,0.1-1.5,0.1"/>
		<path class="st229" d="M427.8,292.3c-1.4-0.3-2-2.1-3.6-2.1c-1.8,0.3-3.6,0.4-5.4-0.1c-1.1,0.2-2.2,0.4-3.2,0.6
			c-0.1,0-0.3,0-0.4,0c4.7-3.2,9.2-2.7,13.6,0.7C428.6,291.9,428.3,292.2,427.8,292.3z"/>
		<path class="st273" d="M338.4,343.4c0,0,0,0.3,0,0.3c-0.2,0.8-0.4,1.7-0.6,2.5c0.1,1.9-0.6,3.7-0.7,5.5c0.4,1.5,0.8,2.9,1.2,4.4
			c-0.2,0-0.3,0-0.5,0C335.3,351.8,335.4,347.5,338.4,343.4z"/>
		<path class="st274" d="M430.8,306.4c1.2-3.4,1.4-7,1.3-10.6c1.4,3.7,1.3,7.2-0.7,10.6C431.1,306.7,431,306.7,430.8,306.4z"/>
		<path class="st275" d="M368,351.2c-0.7,3.4-1.6,3.5-5.5,0.6c-0.4-0.5-0.4-1,0-1.5c0.4,0.3,1,0.6,1.3,1c1.4,2.2,2.7,1.8,3.9-0.2
			L368,351.2z"/>
		<path class="st238" d="M359.7,381.1c1.2,0.2,2.3,0.4,3.5,0.6c1.5,0.7,3.1,0.3,4.7,0.2c0.6,0.1,1,0.3,1,1c-3.2,0.5-6.4,0.7-9.2-1.4
			C359.7,381.4,359.7,381.3,359.7,381.1z"/>
		<path class="st276" d="M353.3,341.3c0-0.5,0-0.9,0-1.4c1.8,0.9,3,2.4,4.1,4.1c-1,0.9-1.4,0-1.9-0.6
			C354.5,342.9,353.8,342.2,353.3,341.3z"/>
		<path class="st277" d="M357.6,394.4c0-0.2,0-0.3,0-0.5"/>
		<path class="st278" d="M359.7,381.1c0,0.1,0,0.3,0,0.4c-2.1-1.1-3.6-2.8-4.8-4.8c1.7-1.1,1.9,0.7,2.7,1.3
			C358.3,379.1,359,380.1,359.7,381.1z"/>
		<path class="st274" d="M415.1,290.8c0.1,0,0.3,0,0.4,0c-1.1,2.1-2.8,3.5-4.7,4.8c-0.2-0.1-0.3-0.2-0.2-0.3
			c0.1-0.1,0.1-0.2,0.2-0.2C412,293.3,413.2,291.7,415.1,290.8z"/>
		<path class="st279" d="M347.6,367.5c1.6,1.3,3.6,2.3,3.6,4.8C349.9,370.8,348,369.7,347.6,367.5z"/>
		<path class="st280" d="M375.3,341.6c0.8,2.8-1.7,2.8-3.2,3.7c1-1.4,2.1-2.7,3.1-4.1C375.3,341.3,375.3,341.5,375.3,341.6z"/>
		<path class="st281" d="M340.9,359.5c1.9,0.9,3.2,2.3,3.6,4.4l-0.1,0C343,362.6,341.3,361.5,340.9,359.5z"/>
		<path class="st229" d="M374.6,377.5c0.9-1.5,2.1-2.8,3.8-3.5c-0.6,1.7-2,2.8-3.1,4.2C375,378,374.8,377.8,374.6,377.5z"/>
		<path class="st282" d="M392.4,354.7c0.9-1.5,2.1-2.8,3.8-3.5c-0.5,1.7-2,2.8-3.1,4.2C392.8,355.3,392.5,355,392.4,354.7z"/>
		<path class="st283" d="M410.8,295c0,0.2,0.1,0.4,0,0.5c0.3,2.3-1.6,2.8-3,3.7C408.3,297.5,409.9,296.4,410.8,295z"/>
		<path class="st284" d="M421.6,318.7c0.1-1.9,0.4-3.6,2.8-3.7C424,316.6,422.8,317.6,421.6,318.7z"/>
		<path class="st285" d="M402.4,307.8c-0.3,1.8-2.5,2-3,3.6c-0.3,0.2-0.6,0.2-0.8-0.1c0.3-1.5,1.7-2.3,2.5-3.5
			C401.5,307.4,401.9,307.4,402.4,307.8z"/>
		<path class="st286" d="M387.4,326.1c0.2,2.3-1.5,2.9-3.1,3.7c0.5-1.8,2.1-2.8,3.1-4.2c0.2,0.1,0.3,0.2,0.2,0.4
			C387.5,326,387.5,326.1,387.4,326.1z"/>
		<path class="st287" d="M359.7,348.2c-1-0.7-1.7-1.6-1.4-3c1.2,1.2,2.6,2.2,3.4,3.8C360.6,349.9,360.2,349,359.7,348.2z"/>
		<path class="st288" d="M359.7,348.2c0.7,0.3,1.3,0.5,2,0.8c0.3,0.5,0.5,0.9,0.8,1.4c0,0.5,0,1,0,1.5
			C361.2,350.9,359.8,350.1,359.7,348.2z"/>
		<path class="st276" d="M351.3,372.4c1.5,0.1,2.1,1.6,3.3,2.2c0.5,0.6,0.5,1.2,0,1.8C353.4,375.2,352.1,374.1,351.3,372.4z"/>
		<path class="st289" d="M400.9,345c0.1-2,1.5-3,3.1-3.7c-0.5,1.8-2,2.8-3.1,4.2C400.9,345.3,400.9,345.1,400.9,345z"/>
		<path class="st290" d="M427.8,292.3c0.3-0.3,0.6-0.5,0.8-0.8c0.9,0.5,1.7,1.2,2.1,2.2C429.3,294.2,428.6,293.2,427.8,292.3z"/>
		<path class="st291" d="M368.9,382.9c-0.2-0.2-0.5-0.4-0.7-0.6c-0.1-1.7,1.7-0.5,2.2-1.4c0.5-0.2,1-0.5,1.4-0.7
			c0.3,0.2,0.7,0.3,0.8,0.7C371.6,382.2,370.2,382.5,368.9,382.9z"/>
		<path class="st292" d="M394.5,317c-0.2,1.9-1.5,2.9-3.1,3.6c0.6-1.7,2.1-2.8,3.1-4.2c0.2,0.1,0.3,0.3,0.2,0.4
			C394.6,316.9,394.6,317,394.5,317z"/>
		<path class="st275" d="M372.5,381c-0.3-0.2-0.5-0.5-0.8-0.7c1.2-0.7,2.1-1.7,2.9-2.8c0.2,0.2,0.5,0.5,0.7,0.7
			C374.7,379.4,373.7,380.3,372.5,381z"/>
		<path class="st293" d="M368,351.2l-0.3-0.1c0.9-1.2,1.8-2.4,2.7-3.6c0,0.1,0.1,0.3,0.1,0.4C370.6,349.9,369.6,350.7,368,351.2z"/>
		<path class="st294" d="M400.9,345c0,0.2,0,0.3,0,0.5c-0.9,1.2-1.9,2.4-2.8,3.6c-0.5-0.5-0.4-1,0-1.5
			C398.8,346.5,399.4,345.3,400.9,345z"/>
		<path class="st295" d="M354.6,376.4c0-0.6,0-1.2,0-1.8c1.4,0.8,2.7,1.7,2.9,3.5c-0.9-0.4-1.5-1.5-2.7-1.3c0,0-0.3-0.1-0.3-0.1
			L354.6,376.4z"/>
		<path class="st296" d="M415.8,324.8c0.7-1,1.3-2,2.7-2c-0.9,1.2-1.8,2.4-2.7,3.6C415.4,325.8,415.4,325.3,415.8,324.8z"/>
		<path class="st219" d="M398,347.6c0,0.5,0,1,0,1.5c-0.7,0.8-1.4,1.5-2.1,2.3C396.1,349.8,396.6,348.4,398,347.6z"/>
		<path class="st297" d="M359,410.2"/>
		<path class="st285" d="M430.8,306.4c0.2,0,0.3,0,0.5,0c-0.9,1.2-1.8,2.4-2.7,3.6c-0.2-0.1-0.3-0.3-0.2-0.4
			c0.1-0.1,0.1-0.2,0.2-0.2C428.7,307.9,429.5,307,430.8,306.4z"/>
		<path class="st244" d="M398.6,311.3c0.3,0,0.5,0.1,0.8,0.1c-0.4,1.4-1.2,2.3-2.7,2.5c0-0.1,0-0.3,0-0.4
			C397.3,312.8,397.9,312,398.6,311.3z"/>
		<path class="st298" d="M377.5,340.5c0-0.6-0.1-1.1-0.1-1.7l-0.1-0.3l0.2-0.2c0.6-0.3,1.1-1.1,2-0.8
			C379.6,339,378.6,339.8,377.5,340.5z"/>
		<path class="st299" d="M355.5,343.4c0.6,0.2,1.3,0.4,1.9,0.6c0.1,0.2,0.2,0.4,0.2,0.7c-0.2,0.3-0.5,1-0.5,1
			C356,345.3,355.5,344.5,355.5,343.4z"/>
		<path class="st300" d="M387.4,326.1c0-0.2,0-0.4,0-0.5"/>
		<path class="st244" d="M403.8,304.6l-0.1-0.3c0.4-1.1,1.3-1.7,2.1-2.4C406,303.5,405.6,304.5,403.8,304.6z"/>
		<path class="st301" d="M424.4,315c-0.1-1.7,1-2.5,2.4-3l0.1,0.1C426.4,313.3,425.6,314.3,424.4,315z"/>
		<path class="st244" d="M380.3,371.2c0,0.2,0,0.4,0,0.6c-0.7,0.8-1.3,1.5-2,2.3C378.2,372.6,378.9,371.7,380.3,371.2z"/>
		<path class="st302" d="M384.5,329.7c0.1,1.7-0.9,2.5-2.3,2.9C382.5,331.3,383.5,330.5,384.5,329.7z"/>
		<path class="st303" d="M427,312.1c0,0-0.1-0.1-0.1-0.1c-0.4-1.5,0.7-2.1,1.8-2.6c0,0.2,0,0.4,0,0.6
			C428.1,310.7,427.5,311.4,427,312.1z"/>
		<path class="st304" d="M407.9,299.2c0.1,1.4-0.6,2.1-2,2.2C406.4,300.4,407.1,299.7,407.9,299.2z"/>
		<path class="st305" d="M337.8,356.1c0.2,0,0.3,0,0.5,0c1.2,0.4,1.6,1.2,1.4,2.4C338.9,357.9,338.1,357.2,337.8,356.1z"/>
		<path class="st82" d="M468.3,215.4c0,0.3,0,0.5,0.1,0.8c-110.4,0-220.9,0-331.3,0c-1.8,0-3.8,0.7-5.5-0.7c111.4,0,222.8,0,334.2,0
			C466.7,215.5,467.5,215.4,468.3,215.4z"/>
		<path class="st306" d="M377.4,152.2c0,0.2,0,0.5,0,0.7c-51,0-102,0-152.9,0c-1.2,0-2.4-0.1-3.5-0.2c0-0.2,0.1-0.4,0.2-0.6
			c49.7,0,99.5,0,149.2,0.1C372.7,152.2,375.1,152.2,377.4,152.2z"/>
		<path class="st307" d="M374.4,154.3c-50.5,0-101,0-151.5,0c0-0.1,0-0.2,0-0.4c50.6,0,101.1,0,151.7,0
			C374.5,154,374.4,154.1,374.4,154.3z"/>
		<path class="st82" d="M130.7,215.5c0.1-8.9,0.1-17.9,0.2-26.8c0-1.3-0.4-2.6,0.6-3.7c0,10.2,0,20.4,0.1,30.6
			C131.3,215.5,131,215.5,130.7,215.5z"/>
		<path class="st307" d="M435.7,154.2c-9.4,0-18.8,0-28.2,0c0-0.1,0-0.2,0-0.3c9.4,0,18.8,0,28.2,0
			C435.7,154,435.7,154.1,435.7,154.2z"/>
		<path class="st308" d="M191.2,154.2c-8.9,0-17.9,0-26.8,0c0-0.1,0-0.2,0-0.4c8.9,0,17.8,0,26.7,0
			C191.1,154,191.2,154.1,191.2,154.2z"/>
		<path class="st82" d="M377.6,152.9c1.2,1.3,0.6,2.9,0.6,4.3c-0.2,6.6,0.8,13.3-0.5,19.9C377.6,169,377.6,161,377.6,152.9z"/>
		<path class="st82" d="M437.2,152.2c0,0.2,0,0.4,0,0.6c-4.1-0.2-8.2-0.3-12.3-0.5C429,151.8,433.1,152.2,437.2,152.2z"/>
		<path class="st309" d="M232.9,324.9c-0.3,0-0.7,0-1-0.1c-0.1,0-0.1-0.4-0.1-0.6"/>
		<path class="st309" d="M290.8,324.1c-0.6,0.8-1.4,0.7-2.3,0.7"/>
		<path class="st310" d="M220.5,272.4"/>
		<path class="st311" d="M351.1,339.8"/>
		<path class="st312" d="M370.3,381c-0.7,0.5-1.5,0.9-2.2,1.4c-1.7-0.2-3.4,0.7-4.9-0.7C365.6,382.1,367.9,380.9,370.3,381z"/>
		<path class="st313" d="M337.1,351.8c-0.3-1.9,0.1-3.7,0.7-5.5C338.8,348.2,337.5,350,337.1,351.8z"/>
		<path class="st207" d="M418.8,290.1c1.8,0,3.6,0,5.4,0.1C422.4,291.1,420.6,291.1,418.8,290.1z"/>
		<path class="st314" d="M453.8,466.2l-0.2,0l-0.1,0.2c-0.4,0.9-0.9,1.7-2.1,1.4c-0.7,0.4-1.4,0.9-2.2,1.3c-0.4,1.1-1.5,1-2.3,1.3
			c-3.8,2.9-8.6,2.5-12.9,3.7c-88.8,0-177.7,0-266.5,0c-5.7,0-10.9-1.6-15.8-4.3c-1-1.1-2.2-1.4-3.6-1.4c-1.3-0.6-1.9-2-3.3-2.5
			c-2.2-1.8-4.4-3.6-5.9-6.2c0.1-0.2,0.1-0.4-0.2-0.5c-1.2-0.8-1.8-2.1-2.7-3.2l0.1-0.1l-0.1-0.2c-1.3-1.7-2-3.7-2.7-5.7
			c-1.9-5.4-2.6-10.9-2.7-16.6c0-3.4,0.5-6.8-0.6-10.2c-0.2-1.4-0.1-2.8-0.1-4.3c0-58.3,0-116.7,0-175c0-2.5-0.7-5.3,1.8-7.3
			c1.6-0.6,3.3-0.5,4.9-0.5c108.3,0,216.5,0,324.8,0c2.4,0,4.7,0.3,7,0.6c1.5,1.9,1,4.1,1,6.2c0,64.3,0,128.5,0,192.8
			c0,3.9-0.4,7.7-1.7,11.4c-1.3,2.3-1.5,5.1-3.1,7.3c-1.2,0.2-1.1,1.1-1.2,1.9c-0.4,1.2-1.4,2-2.2,2.9l0.1-0.2
			c-0.4,1.4-1.6,2.1-2.5,3c-0.3,0.8-0.9,1.3-1.6,1.7C456.1,464.6,455.3,465.9,453.8,466.2z"/>
	</g>
	<g>
		<line class="st315" x1="153" y1="418.8" x2="450.7" y2="418.8"/>
		<g>
			<line class="st315" x1="153" y1="326.3" x2="450.7" y2="326.3"/>
			<line class="st315" x1="153" y1="372.5" x2="450.7" y2="372.5"/>
			<line class="st315" x1="153" y1="280" x2="450.7" y2="280"/>
			<line class="st315" x1="191.2" y1="462.8" x2="191.2" y2="247.1"/>
			<line class="st315" x1="265.7" y1="462.8" x2="265.7" y2="247.1"/>
			<line class="st315" x1="340.3" y1="462.8" x2="340.3" y2="247.1"/>
			<line class="st315" x1="414.9" y1="462.8" x2="414.9" y2="247.1"/>
		</g>
	</g>
	<path class="st316" d="M243.5,369c0.5,0.4,1.1,0.8,1.6,1.2c0.6,2.4,2.4,4,4,5.8c1.7,2.9,2.7,6.2,6.2,7.8c7.2,5.6,7.2,5.6,11.3-0.8
		c1.7-2.1,4.3-3.5,4.9-6.3c1.8-2,4.4-3.4,4.7-6.5l-0.3,0.2c2.5-2.2,5.8-3.7,6.6-7.3c1.3-1.6,3-2.8,4.6-4.1c2.1-1.4,3.1-3.5,4-5.7
		c0.4-0.9,0.8-1.9,1.2-2.8v0.3c1.6-3,5.5-4.5,6-8.3l-0.2,0.3c2.4-1.5,4.1-3.6,5.2-6.3l-0.3,0.3c2.3-2.4,5.4-4.3,6.5-7.7
		c1.8-2,4.5-3.4,4.7-6.5l-0.2,0.3c2.3-1.6,4.1-3.7,5.1-6.3l-0.3,0.2c2.4-2.3,5.1-4.4,6.4-7.6c1.7-2,4.2-3.3,4.7-6.1
		c1.9-2.3,4.7-3.8,6-6.5c0.9-3.4,5-4.5,5.9-7.9c1.2-2,3.3-3.5,4-5.8c1.9-1.9,4.2-3.6,4.9-6.4c-0.3-0.5-0.1-0.8,0.4-1.1
		c1.9-1.3,3.6-2.6,4.3-4.8l-0.2,0.2c2-2.6,5.3-4.3,6.3-7.8c3.7-3.9,7.5-7.7,11.6-11.2c2.1-0.6,4.2-1.5,6.4-1.7c4,0.2,8,0.3,12,0.3
		c3.6-0.3,5.7,2.6,8.5,4c2,1.5,3.7,3.3,6.1,4.1c1,1.6,1.9,3.1,2.9,4.7c1.3,7.5,2,15-2.1,22c-0.9,2.8-4.2,4-5,7
		c-1.6,2.2-4.1,3.7-4.9,6.5c-1.6,2.1-4.1,3.6-5,6.3l0.2-0.1c-2.9,2.1-5.2,4.6-6.3,8l0.1-0.4c-2.3,2.7-5.4,4.7-6.6,8.3l0.1,0.6
		l-0.5,0.3c-2.2,1.5-4.2,3.2-5.7,5.4c-1.8,2.3-3.9,4.6-4.9,7.4l0.2,0.6l-0.5,0.4c-2.2,1.5-4.2,3.1-5.6,5.3c-1.3,2.6-4,4.4-5,7.3
		l0.1-0.3c-2,2.3-4,4.6-6.3,6.6c-2,2.3-3.4,4.9-4.9,7.5l0.3-0.2c-2.3,2.4-5,4.5-6.3,7.7c-2,2.3-4.4,4.2-6.2,6.7
		c-1.9,2.4-3.9,4.6-5.1,7.5l0.3-0.2c-2.6,2.6-5.4,4.9-7.3,8.1c-1.2,2.4-3.9,3.7-5.1,6.1c-0.5,2.3-3.4,3.3-3.6,5.8
		c-0.3,0.5-0.6,1-0.9,1.5c-2,2-4.8,3.4-5.3,6.5l0.2-0.3c-2.5,1.8-4.3,4.2-6.3,6.5c-2.2,3-5,5.5-6.6,8.9c-1.7,2.1-4.2,3.6-4.8,6.4
		l0.3-0.3c-2.8,2.5-5.5,5.1-7.5,8.3c-1.9,2.7-4.2,4.9-7.1,6.6c-1.4,0.7-2.7,1.5-4.3,1.8c-4.7,1.4-9.5,1.8-14.3,1.5
		c-2.9,0.1-5.3-1.2-7.8-2.3c-2.6-1.5-4.5-3.7-6.3-5.9c-1.6-2.9-3.2-5.7-6.2-7.6c-2.4-1.7-4.4-4-6.8-5.8l-0.2-0.2
		c-1.4-4.4-5.6-6.7-8-10.4c-0.6-0.4-1.1-0.7-1.7-1.1c-0.9-2.8-3.3-4.4-5.2-6.5c-2-3.8-5.5-6.5-8.1-9.8c-1.5,0.1-2.5-0.5-2.5-2.1
		c-0.5-2.2-2.3-3.5-3.5-5.2c-1.2-2.9-2.9-5.7-3.1-9c0.4-4.2,1.2-8.3,1.6-12.5c0-1.9,1.2-3.4,2-5c3.5-4.3,7.9-7.3,13.3-8.7
		c4.7-1,9.4-0.4,14.1-0.8c2.6-0.3,3.9,1.9,6,2.7c1.9,1.5,3.7,3.3,5.3,5.1C240.8,366.8,240.9,369.4,243.5,369z"/>
</g>
</svg>
